<?xml version="1.0" standalone="no"?>
<!DOCTYPE svg PUBLIC "-//W3C//DTD SVG 1.1//EN" "http://www.w3.org/Graphics/SVG/1.1/DTD/svg11.dtd" >
<!--
2013-9-30: Created.
-->
<svg>
<metadata>
Created by iconfont
</metadata>
<defs>

<font id="iconfont" horiz-adv-x="1024" >
  <font-face
    font-family="iconfont"
    font-weight="500"
    font-stretch="normal"
    units-per-em="1024"
    ascent="896"
    descent="-128"
  />
    <missing-glyph />
    
    <glyph glyph-name="zuoyouliulanbaidian" unicode="&#58905;" d="M495.9232 405.3504m-43.8784 0a43.8784 43.8784 0 1 1 87.7568 0 43.8784 43.8784 0 1 1-87.7568 0Z"  horiz-adv-x="1024" />

    
    <glyph glyph-name="arr-right" unicode="&#58907;" d="M705.94358444 401.55832359L445.94160755 681.6331246 325.98248586 681.6331246l260.00129795-280.07480102-260.00129793-259.99131759 119.95982346-2e-8L705.94358444 401.55832359zM705.94358444 401.55832359"  horiz-adv-x="1000" />

    
    <glyph glyph-name="quan1" unicode="&#58933;" d="M121.079333 895.482567h781.841334c66.23143 0 120.044467-53.813037 120.044467-120.044467v-781.841334c0-66.23143-53.813037-120.5619-120.044467-120.5619H121.079333C54.847903-126.965134 0.517433-73.152097 0.517433-6.403234v781.323901C0.517433 841.66953 54.33047 895.482567 121.079333 895.482567zM427.91713 278.184942c-13.453259-44.499242-32.080849-79.684689-55.882769-106.073775-29.493684-30.011117-72.440627-56.917635-128.323396-81.754421l32.598282-40.877211c61.0571 29.493684 108.143507 62.091966 139.706923 98.829712 25.354219 32.598282 45.534108 76.062658 60.022233 129.875695h177.479535c-3.104598-72.95806-9.313795-121.079333-19.662455-144.36382-10.348661-21.732188-30.52855-32.598282-61.0571-32.598282-30.011117 0-62.091966 0.517433-96.242547 2.069732l13.970693-48.121273h108.143506c29.493684 1.552299 51.225872 9.831228 65.196564 25.354219 13.970692 16.557858 23.80192 44.499242 30.011117 84.341587 4.656897 39.324912 8.278929 91.068216 10.866094 155.229914 32.598282-26.389085 68.301162-50.708439 108.143507-72.95806l33.115715 42.42951c-82.789288 38.290045-143.328954 82.789288-181.101567 132.980293h158.851946v47.60384H463.102577c16.040424 26.389085 29.493684 52.778171 39.842345 79.68469h280.448711V595.888833h-113.83527c24.836786 30.52855 45.016675 65.196564 61.574532 105.556341l-43.464376 16.040425c-15.522991-38.290045-34.668014-71.923194-57.435068-100.382011l36.737747-20.697322h-146.950986c11.383527 36.220313 21.214755 75.027792 28.458818 116.939868L497.253158 720.072764c-7.761496-46.051541-17.592724-87.446185-29.493684-123.666498h-227.67054V549.319859h208.525518c-12.418393-28.458818-26.906518-54.847903-43.464376-79.68469H200.246589v-47.60384h168.16574c-49.673573-56.400202-113.317837-100.899444-190.415361-134.015159L206.973219 244.034361c41.912077 20.179889 81.754421 44.499242 119.009601 72.958059v-38.807478h101.93431z m184.206165 144.36382c20.179889-33.115715 49.156139-65.196564 86.411318-96.75998H337.366347c34.150581 27.941385 65.196564 60.022233 93.655381 96.75998h181.101567zM299.076301 697.823143C317.703891 670.399192 336.331481 636.24861 354.95907 595.888833l41.912077 19.662456c-12.935826 31.045983-30.52855 63.644265-52.778171 96.759979l-45.016675-14.488125z"  horiz-adv-x="1024" />

    
    <glyph glyph-name="smile" unicode="&#58903;" d="M526.051 850.034c-258.249 0-466.034-207.786-466.034-466.034s207.786-466.034 466.034-466.034c258.249 0 466.034 207.786 466.034 466.034s-207.786 466.034-466.034 466.034zM526.051-43.185c-234.946 0-427.185 192.239-427.185 427.185s192.239 427.185 427.185 427.185c234.946 0 427.185-192.239 427.185-427.185s-192.239-427.185-427.185-427.185zM768.789 273.317c-9.722 3.895-21.372 1.93-25.231-7.755-42.707-83.486-126.229-133.985-217.47-133.985-93.206 0-174.763 50.499-217.47 133.985-3.895 9.722-15.547 13.581-25.231 7.755-9.722-3.895-13.581-15.547-9.722-25.231 48.533-95.136 143.706-155.357 252.422-155.357 106.787 0 203.89 60.183 250.493 155.357 5.825 9.722 1.93 21.372-7.755 25.231zM428.949 481.103c0-32.186-26.068-58.254-58.254-58.254s-58.254 26.068-58.254 58.254c0 32.186 26.068 58.254 58.254 58.254s58.254-26.068 58.254-58.254zM739.663 481.103c0-32.186-26.068-58.254-58.254-58.254s-58.254 26.068-58.254 58.254c0 32.186 26.068 58.254 58.254 58.254s58.254-26.068 58.254-58.254z"  horiz-adv-x="1024" />

    
    <glyph glyph-name="weixiao" unicode="&#58902;" d="M320 451.648c35.264 0 64 27.904 64 62.144C384 548.096 355.264 576 320 576c-35.264 0-64-27.904-64-62.208 0-34.24 28.736-62.144 64-62.144z m384 0c35.264 0 64 27.904 64 62.144C768 548.096 739.264 576 704 576c-35.264 0-64-27.904-64-62.208 0-34.24 28.736-62.144 64-62.144z m-368.384-268.672C380.736 148.736 438.976 128 512 128c73.024 0 131.264 20.736 176.384 55.04 27.072 21.504 43.52 42.24 51.712 58.176 6.592 11.968 0.832 27.072-11.52 33.472a26.368 26.368 0 0 1-34.432-11.2c-0.832-1.536-3.264-6.4-8.192-11.904a168.064 168.064 0 0 0-29.568-29.504c-35.2-27.904-82.816-44.672-144.384-44.672-61.568 0-108.288 16.768-144.384 44.672a166.976 166.976 0 0 0-29.568 29.44c-4.096 5.632-7.36 9.6-8.192 11.968a26.112 26.112 0 0 1-34.496 11.2 24.064 24.064 0 0 1-11.52-33.472c8.32-16 24.704-36.672 51.776-58.24zM512-128c-282.112 0-512 229.888-512 512 0 282.112 229.888 512 512 512 282.112 0 512-229.888 512-512 0-282.112-229.888-512-512-512zM512 847.104C256.832 847.104 48.896 639.168 48.896 384c0-255.168 207.936-463.104 463.104-463.104 255.168 0 463.104 207.936 463.104 463.104C975.104 639.168 767.168 847.104 512 847.104z"  horiz-adv-x="1024" />

    
    <glyph glyph-name="xiaofeijiangli" unicode="&#59686;" d="M128 768h768a42.666667 42.666667 0 0 0 42.666667-42.666667v-682.666666a42.666667 42.666667 0 0 0-42.666667-42.666667H128a42.666667 42.666667 0 0 0-42.666667 42.666667V725.333333a42.666667 42.666667 0 0 0 42.666667 42.666667z m725.333333-341.333333H170.666667v-341.333334h682.666666v341.333334z m0 85.333333V682.666667H170.666667v-170.666667h682.666666z m-256-256h170.666667v-85.333333h-170.666667v85.333333z"  horiz-adv-x="1024" />

    
    <glyph glyph-name="wodedianpu" unicode="&#58895;" d="M218.500433 193.503365l537.226544 0 0-35.815717-537.226544 0 0 35.815717ZM844.87639 497.933889l-58.552557 232.498238c-8.05649 31.775704-36.653805 54.027497-69.434395 54.027497L257.340019 784.459624c-32.780591 0-61.378929-22.251793-69.434395-54.027497l-58.552557-232.498238c-0.197498-3.216251-0.396019-6.436596-0.396019-9.717316 0-39.170115 13.648858-74.289983 35.255968-98.720396l0-249.719458c0-39.561018 32.070416-71.631434 71.631434-71.631434l501.979786 0c39.559994 0 71.631434 32.070416 71.631434 71.631434L809.455669 388.863774c21.934568 24.452925 35.815717 59.846016 35.815717 99.353822C845.272409 491.497293 845.073888 494.717637 844.87639 497.933889zM222.623333 721.63067c4.031826 15.905248 18.307971 27.013237 34.717709 27.013237l459.549417 0c16.408715 0 30.683836-11.107989 34.717709-27.013237l47.635927-187.881065L174.987407 533.749606 222.623333 721.63067zM809.043277 497.933889c0.246617-3.206018 0.413416-6.438643 0.413416-9.717316 0-52.984748-32.803103-97.748255-71.631434-97.748255-20.221554 0-39.73805 12.177344-53.543474 33.407877l-30.02585 46.175669-30.02585-46.174646c-13.806447-21.231557-33.322943-33.408901-53.544497-33.408901-20.2236 0-39.740096 12.177344-53.544497 33.407877l-30.02585 46.179762-30.026874-46.179762c-13.803377-21.230534-33.319873-33.407877-53.543474-33.407877-20.221554 0-39.737026 12.177344-53.544497 33.408901l-30.02585 46.174646-30.024827-46.175669c-13.805424-21.230534-33.32192-33.407877-53.544497-33.407877-38.82833 0-71.631434 44.763506-71.631434 97.748255 0 3.27765 0.165776 6.511297 0.413416 9.717316L809.043277 497.933889zM737.825258 103.961002 235.845473 103.961002c-19.748786 0-35.815717 16.065907-35.815717 35.815717L200.029756 362.671229c11.376095-5.096065 23.587208-8.017604 36.375465-8.017604 33.775244 0 63.87375 19.407002 83.570347 49.698912 19.698644-30.29191 49.795103-49.698912 83.569324-49.698912 33.775244 0 63.87375 19.405979 83.570347 49.698912 19.697621-30.292933 49.795103-49.698912 83.570347-49.698912 33.774221 0 63.871703 19.407002 83.570347 49.698912 19.696598-30.29191 49.79408-49.698912 83.569324-49.698912 12.57848 0 24.598234 2.825348 35.815717 7.762801l0-222.639706C773.640975 120.02691 757.573021 103.961002 737.825258 103.961002z"  horiz-adv-x="1024" />

    
    <glyph glyph-name="wode-zhuansvg-zhuanqu-" unicode="&#58896;" d="M512 802.909091a416.907636 416.907636 0 0 1-268.474182-97.745455L207.313455 741.794909l20.130909 20.130909a23.249455 23.249455 0 1 1-32.907637 32.907637L121.530182 721.826909a23.249455 23.249455 0 1 1 32.907636-32.907636l19.968 19.968L209.687273 673.210182C137.634909 597.946182 93.090909 496.151273 93.090909 384c0-230.981818 187.927273-418.909091 418.909091-418.909091s418.909091 187.927273 418.909091 418.909091S742.981818 802.909091 512 802.909091z m0-791.272727c-205.312 0-372.363636 167.051636-372.363636 372.363636S306.688 756.363636 512 756.363636s372.363636-167.051636 372.363636-372.363636-167.051636-372.363636-372.363636-372.363636zM752.477091 398.638545H535.272727v157.09091a23.272727 23.272727 0 0 1-46.545454 0v-157.09091h-27.159273a23.272727 23.272727 0 0 1 0-46.545454H488.727273v-17.454546a23.272727 23.272727 0 0 1 46.545454 0v17.454546h217.204364a23.272727 23.272727 0 0 1 0 46.545454z"  horiz-adv-x="1024" />

    
    <glyph glyph-name="DataAnalysis" unicode="&#58897;" d="M1060.984-128c13.312 0 24.204 13.542 24.204 30.255s-10.892 30.255-24.204 30.255H24.82C11.51-67.49000000000001 0.617-81.03200000000004 0.617-97.745S11.51-128 24.821-128zM217.836 496.633H72.612A72.612 72.612 0 0 1 0 424.021v-338.856a72.612 72.612 0 0 1 72.612-72.612h145.224a72.612 72.612 0 0 1 72.612 72.612V424.02a72.612 72.612 0 0 1-72.612 72.612z m12.102-399.366a24.204 24.204 0 0 0-24.204-24.204H84.714a24.204 24.204 0 0 0-24.204 24.204V411.919a24.204 24.204 0 0 0 24.204 24.204h121.02a24.204 24.204 0 0 0 24.204-24.204zM615.521 896H470.296a72.612 72.612 0 0 1-72.612-72.612v-738.223a72.612 72.612 0 0 1 72.612-72.612h145.225a72.612 72.612 0 0 1 72.612 72.612V823.388A72.612 72.612 0 0 1 615.52 896z m12.102-798.733a24.204 24.204 0 0 0-24.204-24.204h-121.02a24.204 24.204 0 0 0-24.205 24.204V811.2860000000001a24.204 24.204 0 0 0 24.204 24.204h121.02a24.204 24.204 0 0 0 24.205-24.204z m385.582 580.897H867.981a72.612 72.612 0 0 1-72.612-72.612v-520.387a72.612 72.612 0 0 1 72.612-72.612h145.224a72.612 72.612 0 0 1 72.612 72.612V605.552a72.612 72.612 0 0 1-72.612 72.612z m12.102-580.897a24.204 24.204 0 0 0-24.204-24.204h-121.02a24.204 24.204 0 0 0-24.204 24.204V593.45a24.204 24.204 0 0 0 24.204 24.204h121.02a24.204 24.204 0 0 0 24.204-24.204z"  horiz-adv-x="1085" />

    
    <glyph glyph-name="anquanzhongxin" unicode="&#58898;" d="M512 896L76.8 749.7216v-438.8608C76.8 68.4544 271.616-128 512-128s435.2 196.4544 435.2 438.8608V749.7216L512 896z m353.6128-585.1392c0-196.9152-158.336-356.5824-353.6128-356.5824-195.2768 0-353.6128 159.6672-353.6128 356.5824V688L512 813.696l353.6128-125.696v-377.1392z m-505.0368 115.3024a40.448 40.448 0 0 1-57.6768 0 41.2928 41.2928 0 0 1 0-58.1632l146.6624-147.8912 2.3808-2.4064c15.0528-15.1808 39.424-15.1808 54.528 0l253.2864 255.4368a39.0656 39.0656 0 0 1 0 54.9632l-3.1744 3.2a38.272 38.272 0 0 1-54.528 0l-222.9248-224.6656-118.528 119.552z"  horiz-adv-x="1024" />

    
    <glyph glyph-name="duanxinshezhi" unicode="&#59052;" d="M908.8 724.48H112.64C71.68 724.48 38.4 691.2 38.4 650.24v-527.36c0-40.96 33.28-76.8 76.8-76.8h506.88c15.36 0 25.6 10.24 25.6 25.6s-10.24 25.6-25.6 25.6H115.2c-12.8 0-25.6 10.24-25.6 25.6V647.68c0 12.8 10.24 23.04 23.04 23.04h796.16c12.8 0 25.6-10.24 25.6-25.6v-256c0-15.36 10.24-25.6 25.6-25.6s25.6 10.24 25.6 25.6v256c0 43.52-33.28 79.36-76.8 79.36zM921.6 647.68c-7.68 10.24-20.48 10.24-28.16 5.12L512 371.2 130.56 650.24c-10.24 7.68-23.04 5.12-28.16-2.56s-5.12-20.48 5.12-28.16L486.4 340.48c7.68-7.68 15.36-10.24 25.6-10.24s17.92 2.56 25.6 10.24l378.88 279.04c10.24 5.12 12.8 17.92 5.12 28.16zM957.44 222.72c15.36 17.92 17.92 43.52 5.12 61.44l-15.36 25.6v5.12l-2.56 5.12c-12.8 15.36-33.28 23.04-56.32 17.92-7.68 17.92-23.04 33.28-46.08 35.84h-46.08c-23.04-2.56-40.96-20.48-43.52-40.96-20.48 5.12-43.52-2.56-53.76-17.92l-15.36-23.04c-5.12-7.68-7.68-17.92-10.24-25.6l-2.56-5.12c-7.68-23.04 0-43.52 17.92-56.32-15.36-17.92-17.92-43.52-5.12-61.44l20.48-35.84c15.36-17.92 35.84-25.6 56.32-17.92 5.12-12.8 15.36-23.04 25.6-28.16 5.12-2.56 7.68-2.56 10.24-5.12h5.12l2.56-2.56h48.64c23.04 2.56 40.96 20.48 43.52 40.96 17.92-5.12 35.84 2.56 51.2 17.92l17.92 25.6c5.12 7.68 7.68 17.92 10.24 25.6v2.56c10.24 17.92 2.56 40.96-17.92 56.32z m-10.24-46.08l-2.56-5.12c-2.56-5.12-5.12-12.8-7.68-15.36l-15.36-20.48c-7.68-7.68-17.92-10.24-23.04-7.68l-5.12 2.56h-12.8c-7.68 0-12.8-2.56-17.92-10.24l-5.12-5.12v-12.8c0-12.8-12.8-15.36-12.8-15.36h-38.4c-2.56 0-5.12 2.56-7.68 2.56h-2.56c-2.56 2.56-7.68 7.68-10.24 12.8 0 7.68-5.12 15.36-10.24 17.92l-5.12 5.12h-7.68c-5.12 0-12.8 0-20.48-5.12-10.24-2.56-17.92 2.56-20.48 5.12l-20.48 33.28c-5.12 7.68-2.56 17.92 2.56 23.04 5.12 2.56 7.68 7.68 10.24 12.8 5.12 12.8-2.56 28.16-12.8 35.84-7.68 5.12-10.24 12.8-7.68 20.48l2.56 5.12c2.56 5.12 5.12 12.8 7.68 15.36l15.36 23.04c2.56 5.12 10.24 7.68 20.48 5.12l2.56-2.56h15.36c7.68 0 12.8 2.56 17.92 10.24l5.12 5.12v12.8c0 12.8 12.8 15.36 15.36 15.36h35.84c7.68-2.56 15.36-7.68 17.92-15.36 0-7.68 5.12-12.8 10.24-17.92l5.12-5.12h7.68c5.12 0 12.8 0 17.92 2.56 10.24 0 15.36 0 17.92-2.56l20.48-35.84c5.12-7.68 2.56-17.92-2.56-23.04-5.12-2.56-7.68-7.68-10.24-12.8-5.12-12.8 0-28.16 12.8-33.28 15.36-5.12 20.48-15.36 17.92-20.48zM821.76 276.48c-35.84 0-66.56-30.72-66.56-66.56s30.72-66.56 66.56-66.56 66.56 30.72 66.56 66.56-30.72 66.56-66.56 66.56z m0-102.4c-20.48 0-35.84 15.36-35.84 35.84s15.36 35.84 35.84 35.84 35.84-15.36 35.84-35.84-15.36-35.84-35.84-35.84z"  horiz-adv-x="1024" />

    
    <glyph glyph-name="xianjin" unicode="&#58899;" d="M969.122909 16.384c0-13.218909-2.792727-26.437818-8.285091-37.003636a195.025455 195.025455 0 0 0-19.409454-31.744 122.88 122.88 0 0 0-30.487273-21.178182c-11.077818-5.259636-24.901818-7.912727-38.772364-7.912727H149.038545c-13.824 0-27.694545 2.653091-38.772363 7.912727-13.870545 5.306182-24.948364 10.612364-33.233455 21.178182a94.952727 94.952727 0 0 0-22.155636 31.744A81.221818 81.221818 0 0 0 46.545455 16.384V542.72c0 26.437818 11.077818 50.269091 30.487272 68.747636a103.005091 103.005091 0 0 0 72.005818 29.090909h725.92291c27.694545 0 52.596364-10.565818 72.005818-29.090909 19.409455-18.478545 30.487273-42.309818 30.487272-68.747636v-142.801455h-257.675636c-27.694545 0-52.596364-7.912727-72.005818-26.437818-19.409455-18.525091-30.487273-39.703273-30.487273-68.794182 0-18.478545 5.538909-34.350545 11.077818-47.569454 5.538909-13.218909 16.616727-23.831273 30.487273-31.744 13.824-10.565818 33.233455-15.872 58.181818-15.872h252.090182v-193.070546zM819.525818 688.128H318.045091c38.818909 18.525091 77.591273 39.656727 113.570909 58.181818l91.461818 47.616c30.487273 15.825455 52.642909 26.437818 72.052364 37.003637C619.985455 844.148364 644.980364 849.454545 664.389818 849.454545c19.362909 0 38.772364-5.306182 52.596364-10.565818 16.663273-7.912727 30.487273-18.525091 41.611636-31.744l60.974546-119.016727z m-149.597091-383.488c0 13.218909 5.538909 23.831273 13.824 34.397091 8.378182 7.912727 22.202182 13.218909 36.026182 13.218909 13.870545 0 24.948364-5.259636 36.026182-13.218909 8.331636-7.912727 13.870545-21.178182 13.870545-34.397091s-5.585455-23.738182-13.870545-34.350545c-8.331636-10.565818-22.155636-13.218909-36.026182-13.21891-13.824 0-24.901818 5.259636-36.026182 13.21891-8.285091 7.912727-13.824 18.525091-13.824 34.350545z"  horiz-adv-x="1024" />

    
    <glyph glyph-name="shujuxinxi" unicode="&#59423;" d="M923.61315 79.862141H171.434999c-28.008914 0.034792-53.701063 26.251897-53.726645 53.727669V706.677097c0 16.526395-6.348592 35.817764-23.208585 35.817763-16.850783 0-30.519084-13.397125-30.519084-29.923519v-576.813145c0.026606-60.529585 50.045813-109.587907 111.765503-109.6227h753.165642c16.861016 0 30.519084 13.397125 30.519084 29.92352 0 16.528442-18.977213 23.803125-35.817764 23.803125zM301.581128 401.926278l156.415422 153.3629 156.414399-153.3629c6.393617-6.279007 15.321964-9.444093 24.337292-8.622378s17.182334 5.544273 22.280446 12.889565a31.269168 31.269168 0 0 1 6.961552 5.15951l244.49855 239.72585c5.754051 5.613858 9.008164 13.222139 9.008164 21.179368 0.01842 7.939833-3.199878 15.565511-8.953929 21.178345-5.720282 5.649674-13.502525 8.797363-21.617344 8.797363-8.114818-0.017396-15.881712-3.182482-21.581527-8.832155l-232.940307-228.391711-151.692864 148.72937c-6.987135 6.873548-16.96437 9.968026-26.714432 8.272407v0.017396c-9.750061 1.696642-19.727297-1.416256-26.714431-8.289803L258.427282 444.251246c-11.945053-11.701506-11.82328-30.53648 0.096191-42.219567 12.014638-11.770068 31.191396-11.735275 43.057655-0.105401z"  horiz-adv-x="1024" />

    
    <glyph glyph-name="yinhangqia" unicode="&#58906;" d="M960.3 552.4v13.3c0 82.9-67 150.3-149.5 150.3H213.2c-82.4 0-149.5-67.4-149.5-150.3v-13.3h896.6zM63.7 419.1v-216.8c0-82.9 67-150.3 149.5-150.3h597.6c82.4 0 149.5 67.4 149.5 150.3V419.1H63.7z m771-143.6l-36-63.8C794.3 203.9 786 199 777 199H621.4c-19.1 0-31.1 20.7-21.7 37.4l36 63.8c4.4 7.8 12.7 12.7 21.7 12.7H813c19.1 0 31.1-20.7 21.7-37.4z m0 0"  horiz-adv-x="1024" />

    
    <glyph glyph-name="dayin" unicode="&#58900;" d="M931.986286 689.956571H817.005714V783.140571c0 42.422857-21.430857 86.308571-63.634285 86.308572H293.814857c-42.276571 0-88.868571-43.885714-88.868571-86.308572v-93.184H115.2C72.923429 689.956571 26.550857 645.851429 26.550857 603.428571v-282.404571c0-42.496 46.372571-67.072 88.649143-67.072h89.819429v-287.890286c0-42.422857 46.592-66.706286 88.795428-66.706285H753.371429c42.276571 0 63.707429 24.283429 63.707428 66.706285V253.952h114.980572c42.276571 0 64.658286 24.576 64.658285 67.072V603.428571c0 42.496-22.381714 86.601143-64.658285 86.601143zM256.073143 783.140571c0 14.116571 23.771429 36.132571 37.814857 36.132572h459.410286c14.116571 0 12.726857-21.942857 12.726857-36.132572v-93.184H256.073143V783.140571z m509.952-807.204571c0-14.189714-11.044571-26.331429-25.161143-26.331429H281.380571a26.038857 26.038857 0 0 0-25.307428 26.331429V356.498286c0 14.189714 11.264 25.673143 25.307428 25.673143h459.483429c14.116571 0 25.161143-11.483429 25.161143-25.6v-380.635429z m178.468571 345.088c0-14.116571 1.609143-15.725714-12.434285-15.725714H817.005714V346.697143c0 42.422857-21.430857 86.820571-63.634285 86.820571H293.814857c-42.276571 0-88.868571-44.324571-88.868571-86.820571v-41.398857H115.2c-14.116571 0-37.668571 1.609143-37.668571 15.725714V603.428571c0 14.189714 23.552 35.328 37.668571 35.328h816.786286c14.116571 0 12.580571-21.138286 12.580571-35.254857v-282.331428z m-252.196571-52.589714H334.994286a25.088 25.088 0 1 1 0-50.176h357.376a25.088 25.088 0 1 1 0 50.176z m0-148.260572H334.994286a25.6 25.6 0 0 1-25.526857-25.6c0-14.262857 11.483429-25.673143 25.6-25.673143h357.302857a25.6 25.6 0 0 1 25.526857 25.6 25.6 25.6 0 0 1-25.526857 25.6z m117.248 454.729143c0-20.845714 16.822857-37.741714 37.522286-37.741714a37.668571 37.668571 0 0 1 37.595428 37.741714 37.668571 37.668571 0 0 1-37.595428 37.814857 37.668571 37.668571 0 0 1-37.522286-37.814857z"  horiz-adv-x="1024" />

    
    <glyph glyph-name="VIP" unicode="&#58904;" d="M1105.385528 781.817319H156.697509c-48.588375 0-88.673784-37.251087-88.673784-82.600237v-85.434559h1116.317912v-59.115856H68.023725v-553.907474c0-9.312772 9.717675-27.533412 19.840253-36.846184 8.907869-8.098062 17.815737-8.907869 34.011862-15.791222 4.049031-1.619612 8.098062-2.429419 12.147094-2.429418H1105.385528c48.588375 0 88.673784 37.251087 88.673784 82.600237V699.217082c0 45.34915-39.680506 82.600237-88.673784 82.600237zM332.425465 387.036773h42.109924l72.882563-238.892843h1.214709l72.477659 238.892843H562.815342l-91.913009-288.291024h-47.373666l-91.103202 288.291024zM604.925267 387.036773h38.8707v-288.291024h-38.8707v288.291024zM708.98537 387.036773h106.084618c60.735469 0 91.508106-29.153025 91.508106-87.459074 0-59.115856-30.772637-88.268881-91.913009-88.268881h-66.404112v-112.158166h-38.8707v287.886121z m38.8707-37.251087v-100.820878h63.974693c19.43535 0 33.606959 4.049031 42.109925 12.147094 8.907869 8.502966 13.361803 21.459866 13.361803 38.8707 0 18.220641-4.453934 30.772637-13.766706 38.060893-8.907869 8.098062-22.674575 12.147094-42.109925 12.147094h-63.56979z"  horiz-adv-x="1276" />

    
    <glyph glyph-name="hongqi" unicode="&#59102;" d="M78.769231 747.204923a39.384615 39.384615 0 0 0 11.264 27.569231C143.044923 828.809846 205.587692 856.615385 275.692308 856.615385c80.896 0 134.774154-15.911385 222.916923-56.083693l42.535384-18.983384c50.254769-21.425231 84.676923-29.932308 128.393847-29.932308 95.704615 0 169.668923 10.948923 221.341538 32.059077a39.384615 39.384615 0 0 0 54.350769-36.470154V257.181538a39.384615 39.384615 0 0 0-15.596307-31.428923c-68.923077-52.145231-155.963077-77.981538-260.096-77.981538-67.426462 0-116.105846 16.305231-199.601231 57.816615l-29.853539 14.808616c-70.892308 34.343385-109.725538 46.158769-164.391384 46.158769-35.918769 0-75.224615-10.712615-118.153846-32.689231V-128H78.769231zM275.692308 777.846154c-38.675692 0-73.570462-12.051692-105.787077-37.021539L157.538462 730.427077v-409.993846l21.661538 8.034461c26.387692 8.900923 52.302769 14.336 77.587692 16.147693l18.904616 0.630153c74.830769 0 124.849231-17.014154 218.03323-63.488l28.908308-14.336c62.306462-29.932308 99.249231-40.96 146.904616-40.96 73.176615 0 134.222769 14.493538 184.004923 43.165539L866.461538 277.661538V693.248l-22.291692-5.198769c-42.535385-8.743385-91.372308-13.705846-146.510769-14.966154l-28.120615-0.236308c-62.621538 0-109.646769 13.548308-180.539077 45.528616l-43.716923 19.692307C378.958769 767.133538 336.738462 777.846154 275.692308 777.846154z"  horiz-adv-x="1024" />

    
    <glyph glyph-name="qiankuanzongjine2x" unicode="&#58956;" d="M512 384m-512 0a512 512 0 1 1 1024 0 512 512 0 1 1-1024 0ZM677.12 360.32c40.96 49.28 67.84 113.28 80 191.36v48H428.16c8.32 25.6 16 53.76 22.4 83.2l-67.84 8.96c-18.56-115.2-65.28-204.16-140.8-266.88l41.6-53.12c48.64 35.84 88.96 90.24 120.96 163.2h282.24c-10.24-47.36-29.44-90.24-58.88-129.28l49.28-45.44z m88.96-270.72l37.76 58.88c-141.44 56.32-229.76 142.08-264.96 256.64 4.48 30.72 7.04 63.36 7.04 98.56H478.08c-1.28-82.56-14.72-149.76-40.32-200.96-33.28-60.16-104.32-112-213.12-154.88l45.44-55.68c124.16 51.2 202.24 114.56 234.24 191.36 3.2 7.68 6.4 16 10.24 24.32 47.36-94.72 131.2-167.04 251.52-218.24z"  horiz-adv-x="1024" />

    
    <glyph glyph-name="biaoqian" unicode="&#58901;" d="M0 384L365.714286 896h3145.142857a146.285714 146.285714 0 0 0 146.285714-146.285714v-731.428572a146.285714 146.285714 0 0 0-146.285714-146.285714H365.714286L0 384zM475.428571 384m-109.714285 0a109.714286 109.714286 0 1 1 219.428571 0 109.714286 109.714286 0 1 1-219.428571 0Z"  horiz-adv-x="3657" />

    
    <glyph glyph-name="shangpinshezhi" unicode="&#59276;" d="M736.256 563.2c18.825846 11.972923 37.651692 30.72 37.651692 54.744615 0 35.918769-23.945846 61.597538-61.597538 61.597539-37.651692 0-61.597538-23.945846-61.597539-61.597539 0-18.904615 11.972923-35.918769 23.945847-49.624615-25.678769-95.862154-106.102154-164.312615-210.471385-164.312615-104.369231 0-184.792615 73.570462-210.471385 164.312615 11.972923 11.972923 23.945846 30.72 23.945846 49.624615 0 35.918769-23.945846 61.597538-61.597538 61.597539-37.651692 0-59.864615-25.678769-59.864615-61.597539 0-23.945846 11.894154-49.624615 37.572923-54.744615 23.945846-121.540923 135.246769-219.057231 272.147692-219.057231 133.435077 0 239.537231 90.663385 270.336 218.978462z m197.789538-95.862154v-73.570461c0-3.465846 0-6.852923-7.876923-10.24v90.584615c7.876923-1.575385 7.876923-5.041231 7.876923-6.774154zM953.580308 30.956308v-13.705846a27.569231 27.569231 0 0 0-5.12-15.36c-1.732923-5.12-5.12-10.24-6.852923-13.705847a45.371077 45.371077 0 0 0-10.24-8.585846c-3.465846-1.654154-6.852923-3.387077-8.585847-3.387077-1.732923 0-5.12 0-8.585846 1.732923-3.387077 0-6.852923 1.654154-11.972923 1.654154h-13.705846c-5.12 0-8.507077-1.654154-13.627077-3.387077a27.569231 27.569231 0 0 1-11.972923-6.852923 36.391385 36.391385 0 0 1-11.972923-25.678769c0-10.24 0-18.825846 3.387077-27.332923a13.154462 13.154462 0 0 0-1.732923-17.171692c-1.654154-1.654154-5.12-5.12-8.507077-6.774154-3.465846-3.465846-8.585846-5.198769-11.972923-6.852923-3.465846-1.732923-8.585846-3.465846-13.705846-5.19877-5.12-1.654154-10.24-1.654154-13.705846-1.654153-3.387077 0-5.12 1.654154-6.852924 3.387077a23.630769 23.630769 0 0 0-5.12 6.852923 56.713846 56.713846 0 0 1-17.092923 23.945846 41.984 41.984 0 0 1-27.411692 10.24 41.984 41.984 0 0 1-27.411692-10.24 48.049231 48.049231 0 0 1-17.092923-23.945846c-1.654154-3.387077-3.387077-6.852923-6.852923-8.585847-3.387077-1.654154-6.852923-1.654154-10.24-1.654153-3.387077 0-8.585846 0-13.705847 1.654153l-15.36 5.19877a37.257846 37.257846 0 0 0-13.705846 8.507077c-3.465846 3.465846-6.852923 5.12-8.585846 8.585846-1.654154 1.732923-1.654154 5.12-1.654154 6.852923 0 3.387077 1.654154 6.852923 3.387077 11.972923 3.387077 6.852923 5.12 13.705846 3.387077 23.945846a40.172308 40.172308 0 0 1-11.972923 23.945846c-3.387077 5.12-8.507077 6.852923-15.36 8.585846-5.12 1.654154-11.972923 1.654154-17.092923 1.654154-6.852923 0-11.972923-1.654154-18.904615-3.387077-3.387077-1.732923-8.507077 0-11.894154 0-3.465846 1.732923-6.852923 3.387077-8.664616 8.585846-1.575385 5.12-5.041231 8.507077-6.774153 13.627077l-5.12 15.43877c-1.732923 5.12-1.732923 10.24 0 13.705846 0 6.852923 3.387077 10.24 8.507076 11.972923a56.713846 56.713846 0 0 1 24.024616 17.092923 41.984 41.984 0 0 1 10.24 27.411692 41.984 41.984 0 0 1-10.24 27.332923 56.713846 56.713846 0 0 1-24.024616 17.171693c-3.387077 0-5.12 3.387077-6.774153 6.774153a24.339692 24.339692 0 0 0-3.465847 10.24c0 3.465846 0 8.664615 1.732924 13.784616 1.732923 5.12 3.387077 8.507077 5.12 13.627077a27.569231 27.569231 0 0 0 6.852923 11.972923c3.387077 3.465846 5.12 6.852923 8.585846 8.664615-1.732923 5.041231 1.654154 5.041231 3.387077 5.041231 1.732923 0 5.12 0 6.852923-1.654154a50.727385 50.727385 0 0 1 27.332923-3.465846 44.898462 44.898462 0 0 1 25.678769 11.972923 37.257846 37.257846 0 0 1 8.585846 13.705846 49.939692 49.939692 0 0 1 3.387077 15.36v13.705846c0 3.465846 0 6.852923-1.654154 8.585847 0 1.732923-1.732923 3.387077-1.732923 6.852923V270.572308c1.732923 3.387077 5.12 8.507077 10.24 10.24 5.198769 3.387077 10.24 5.12 15.438769 8.585846l15.36 5.12c5.198769 1.732923 8.585846 1.732923 11.972924 1.732923 3.465846 0 6.852923-1.732923 8.664615-3.465846 1.575385-3.387077 3.387077-5.12 5.041231-8.585846a46.710154 46.710154 0 0 1 15.438769-20.48 42.062769 42.062769 0 0 1 25.678769-8.585847c10.24 0 18.825846 3.465846 27.332923 8.585847a43.795692 43.795692 0 0 1 17.092923 22.212923c1.732923 1.732923 3.465846 5.12 5.19877 6.852923a13.075692 13.075692 0 0 0 8.507076 3.465846 42.535385 42.535385 0 0 0 13.705847-1.732923c5.12-1.732923 10.24-3.465846 13.705846-5.12 5.12-1.732923 8.507077-5.198769 13.705846-8.585846l10.24-10.24c1.732923-1.732923 1.732923-5.198769 1.732923-8.585846s-1.732923-5.12-1.732923-5.12c-3.387077-8.585846-5.12-17.092923-3.387077-27.411693 1.654154-10.24 5.12-17.092923 13.627077-25.678769a44.898462 44.898462 0 0 1 25.678769-11.972923c10.24-1.654154 20.48 1.732923 29.144616 5.198769 1.654154 1.654154 3.387077 1.654154 6.774153 1.654154 3.465846 0 6.852923-1.654154 8.664616-3.387077 5.041231-3.465846 8.507077-10.24 11.894154-18.904615 3.465846-8.507077 5.12-17.014154 6.852923-25.6 0-5.12 0-8.585846-1.732923-11.972923-1.654154-3.465846-5.12-5.12-6.852923-5.12a56.713846 56.713846 0 0 1-23.945847-17.171693 41.984 41.984 0 0 1-1.654153-53.011692 45.922462 45.922462 0 0 1 22.212923-17.092923c1.732923-1.732923 3.387077-1.732923 5.12-3.465846a27.569231 27.569231 0 0 0 6.852923-11.972923z m-203.618462-66.717539c17.092923 0 32.531692 3.387077 47.891692 8.585846 15.438769 6.774154 27.411692 15.36 37.651693 25.6 10.24 12.051692 18.825846 24.024615 25.678769 37.651693 6.852923 13.705846 8.585846 30.798769 8.585846 46.237538 0 17.092923-3.465846 32.531692-8.664615 46.237539a146.353231 146.353231 0 0 1-25.6 37.572923 146.353231 146.353231 0 0 1-37.651693 25.678769 113.427692 113.427692 0 0 1-47.891692 8.585846c-17.092923 0-32.531692-3.387077-46.237538-8.585846a146.353231 146.353231 0 0 1-37.651693-25.678769c-10.24-10.24-18.825846-23.945846-25.678769-37.572923-6.774154-13.705846-8.507077-30.877538-8.507077-46.237539 0-17.092923 3.387077-32.531692 8.507077-46.237538 6.852923-13.627077 15.438769-27.332923 25.678769-37.651693 10.24-11.972923 23.945846-20.48 37.651693-25.6 13.705846-5.198769 29.144615-8.585846 46.237538-8.585846zM927.901538 465.604923v-133.435077c0-18.904615-15.36-32.531692-34.185846-32.531692a33.792 33.792 0 0 0-23.945846 10.24 31.035077 31.035077 0 0 0-10.24 23.945846V756.578462c-6.931692 44.504615-44.583385 75.303385-92.475077 75.303384h-605.735384c-53.090462 0-94.129231-37.651692-94.129231-89.009231v-708.371692c0-51.357538 39.384615-89.009231 94.129231-89.009231h345.639384c17.092923 0 32.531692-15.438769 32.531693-35.918769s-15.438769-35.918769-32.531693-35.918769H161.319385c-87.276308 0-160.925538 70.104615-160.925539 152.260923V742.872615C0.393846 824.950154 74.043077 895.133538 161.319385 895.133538H768.787692c87.276308 0 160.846769-70.104615 160.84677-152.260923v-102.715077l-1.732924-174.552615c0 3.465846 0 6.852923-1.732923 8.585846v-90.742154c0 3.465846 1.732923 6.852923 1.732923 8.664616v73.491692c0 1.732923 0 0 0 0z"  horiz-adv-x="1024" />

    
    <glyph glyph-name="shouyinshezhi" unicode="&#58947;" d="M928.289756 752.376887h-2.143629l-6.430886 62.165228A87.888771 87.888771 0 0 1 883.273556 880.9946a83.601514 83.601514 0 0 1-70.739742 10.718143L203.743304 752.376887l-15.0054-4.287257H184.450647l-12.861772-6.430886a79.314257 79.314257 0 0 1-38.585314-68.596114v-366.560483a231.511884 231.511884 0 1 1 330.118798-278.671712h465.167397a81.457885 81.457885 0 0 1 81.457885 79.314256V673.06263a81.457885 81.457885 0 0 1-81.457885 79.314257z m-100.750542 85.745142a25.723543 25.723543 0 0 0 23.579914-4.287257 32.154428 32.154428 0 0 0 12.861771-23.579914l6.430886-57.877971H458.835102l368.704112 85.745142zM373.08996-25.760279a184.352056 184.352056 0 1 0 53.590714 130.761342 182.208427 182.208427 0 0 0-53.590714-130.761342z m555.199796 109.325056H473.840502V102.857434A231.511884 231.511884 0 0 1 188.737904 330.082061v342.980569a23.579914 23.579914 0 0 0 15.0054 21.436286h724.546452a23.579914 23.579914 0 0 0 23.579914-23.579914v-158.628514H711.783272a34.298057 34.298057 0 0 1-34.298057-32.154428v-160.772142a34.298057 34.298057 0 0 1 34.298057-34.298056h242.230026v-180.064799a23.579914 23.579914 0 0 0-23.579914-23.579914z m21.436285 381.565883v-132.90497H724.645043V467.274289z m0 0M808.246557 364.380118h75.026999a6.430886 6.430886 0 0 1 6.430886 6.430886v60.021599a6.430886 6.430886 0 0 1-6.430886 6.430886h-75.026999a6.430886 6.430886 0 0 1-6.430886-6.430886v-60.021599a6.430886 6.430886 0 0 1 6.430886-6.430886zM334.504646 83.564777h-68.596114v32.154429h53.590714a21.436286 21.436286 0 1 1 0 42.872571h-34.298057l45.0162 45.016199a15.0054 15.0054 0 0 1-21.436286 21.436286l-64.308857-62.165228-64.308856 62.165228a15.0054 15.0054 0 0 1-21.436286-21.436286l45.0162-45.016199H169.445247a21.436286 21.436286 0 1 1 0-42.872571h53.590714v-32.154429H154.439847a21.436286 21.436286 0 1 1 0-42.872571h68.596114v-68.596114a21.436286 21.436286 0 0 1 42.872571 0v68.596114H334.504646a21.436286 21.436286 0 1 1 0 42.872571z m0 0"  horiz-adv-x="1024" />

    
    <glyph glyph-name="quan" unicode="&#58997;" d="M0 896m128 0l768 0q128 0 128-128l0-768q0-128-128-128l-768 0q-128 0-128 128l0 768q0 128 128 128ZM268.544 48.128c65.28 31.488 114.432 66.816 147.456 106.752 25.344 32.256 46.08 76.032 61.44 130.56h173.568c-3.072-69.12-9.984-113.664-19.2-135.168-9.216-19.968-27.648-30.72-56.832-30.72-33.024 0-68.352 1.536-106.752 3.072l19.2-68.352h122.88c30.72 1.536 53.76 11.52 68.352 28.416 14.592 17.664 25.344 48.384 31.488 92.928a1984.64 1984.64 0 0 1 10.752 151.296c29.184-23.808 62.976-46.848 101.376-69.12l47.616 59.136c-79.872 36.864-139.008 77.568-176.64 122.88h151.296V505.856H472.832c12.288 22.272 23.808 45.312 34.56 69.12h294.912V639.488h-107.52c22.272 29.184 41.472 63.744 57.6 102.144l-60.672 21.504a408.96 408.96 0 0 0-58.368-105.216l33.792-18.432H531.2c11.52 36.864 20.736 75.264 28.416 116.736L487.424 765.44a794.24 794.24 0 0 0-29.952-125.952H355.328l39.936 18.432a754.432 754.432 0 0 1-52.992 102.144l-62.976-20.736c18.432-29.184 36.864-62.208 53.76-99.84h-111.36v-64.512H431.36c-11.52-23.808-24.576-46.848-39.168-69.12H179.456v-66.048H339.2c-49.92-52.224-111.36-93.696-185.088-125.184l39.936-61.44a711.936 711.936 0 0 1 119.04 72.192v-39.936h96c-13.056-39.936-30.72-72.192-53.76-96.768-30.72-29.952-74.496-57.6-132.864-82.944l46.08-57.6z m422.4 304.896H346.88c29.184 26.112 56.832 55.296 81.408 86.784h188.928c18.432-29.184 43.008-58.368 73.728-86.784z"  horiz-adv-x="1024" />

    
    <glyph glyph-name="weixin1" unicode="&#59045;" d="M920.697905-127.000381H102.302476A102.595048 102.595048 0 0 0 0-24.697905V793.697524A102.595048 102.595048 0 0 0 102.302476 896h818.395429a102.595048 102.595048 0 0 0 102.302476-102.302476v-818.395429a102.595048 102.595048 0 0 0-102.302476-102.302476zM918.674286 290.889143c0 115.078095-115.614476 209.188571-245.028572 209.188571-137.094095 0-245.028571-94.110476-245.028571-209.188571 0-115.590095 107.934476-209.188571 245.028571-209.188572 28.647619 0 57.782857 7.143619 86.454857 14.311619l79.262477-43.471238-21.455238 72.118858c57.782857 43.471238 100.742095 101.278476 100.742095 166.229333z m-320.219429 33.255619c-17.383619 0-31.207619 13.799619-31.207619 31.207619 0 17.383619 13.824 31.207619 31.207619 31.207619 17.383619 0 31.207619-13.824 31.207619-31.207619 0-17.408-13.824-31.207619-31.207619-31.207619z m157.013333 0c-17.383619 0-31.183238 13.799619-31.183238 31.207619 0 17.383619 13.799619 31.207619 31.207619 31.207619 17.383619 0 31.207619-13.824 31.207619-31.207619 0-17.408-13.824-31.207619-31.207619-31.207619zM392.313905 716.458667C233.764571 716.458667 103.862857 608.548571 103.862857 471.454476c0-79.286857 42.959238-144.237714 115.590095-194.876952l-28.647619-86.966857 100.766477 50.639238c36.327619-7.143619 64.975238-14.311619 101.278476-14.311619 9.216 0 17.92 0.487619 27.111619 1.024a215.235048 215.235048 0 0 0-8.679619 60.342857c0 125.830095 108.422095 228.132571 245.00419 228.132571 9.191619 0 18.407619-0.487619 27.623619-1.536C658.285714 630.02819 534.528 716.458667 392.289524 716.458667z m-77.238857-188.732953c-6.119619-3.584-12.775619-5.632-19.943619-5.632A39.960381 39.960381 0 0 0 255.268571 561.980952c0 22.016 17.895619 39.911619 39.887239 39.911619 21.991619 0 39.911619-17.895619 39.911619-39.911619 0-13.799619-7.68-27.111619-19.968-34.255238z m184.149333-5.12a39.960381 39.960381 0 0 0-39.887238 39.887238c0 21.991619 17.895619 39.911619 39.887238 39.911619 21.991619 0 39.887238-17.92 39.887238-39.911619 0.512-21.991619-17.383619-39.887238-39.887238-39.887238z"  horiz-adv-x="1024" />

    
    <glyph glyph-name="huiyuan" unicode="&#59098;" d="M958.27 762.26l-320.33 0.32-317.52-369.5V762.26H64.21v-63.67h64.12v-702.34h192.1l637.84 766.01z m0 0"  horiz-adv-x="1024" />

    
    <glyph glyph-name="touxiang" unicode="&#58915;" d="M802.56 237.27616c-2.98496 2.98496-6.0928 5.85216-9.16992 8.74496-0.73216 0.86528-1.40288 1.76128-2.2528 2.54464a408.68864 408.68864 0 0 1-82.44224 58.88512l-0.34304 0.18432a407.552 407.552 0 0 1-16.31744 8.36096c-0.9216 0.44544-1.85344 0.88064-2.77504 1.32096a406.56384 406.56384 0 0 1-14.27456 6.45632c-1.65376 0.71168-3.31776 1.39264-4.98176 2.08384-2.34496 0.96768-4.65408 2.01216-7.02464 2.93888-1.91488 0.75264-3.88096 1.40288-5.8112 2.1248-1.8944 0.71168-3.7888 1.40288-5.69856 2.08384-1.69472 0.60416-3.36384 1.26976-5.0688 1.85344a291.80928 291.80928 0 0 1 64.45568 48.52736c52.64896 52.64384 85.16096 125.32224 85.16096 205.59872 0 80.27648-32.512 152.94976-85.16096 205.59872C658.26304 847.16032 585.58976 879.72352 505.31328 879.72352c-80.3328 0-153.00608-32.5632-205.59872-85.16096-52.64896-52.64384-85.16096-125.31712-85.16096-205.59872s32.50688-152.95488 85.15584-205.59872c21.00224-21.00736 45.33248-38.6304 71.9616-52.44416a0.07168 0.07168 0 0 0-0.03072-0.01024c-1.93024-0.72192-3.89632-1.37216-5.8112-2.1248-2.36544-0.92672-4.67456-1.96608-7.01952-2.93376-1.66912-0.6912-3.33824-1.37728-4.992-2.08896-4.80256-2.05824-9.55392-4.21376-14.2592-6.4512-0.93184-0.44544-1.86368-0.87552-2.7904-1.32608a399.90784 399.90784 0 0 1-16.29696-8.35072l-0.36352-0.19456a408.28416 408.28416 0 0 1-82.43712-58.88c-0.84992-0.78336-1.52576-1.68448-2.2528-2.54464-3.07712-2.8928-6.18496-5.76-9.17504-8.74496-73.80992-73.8048-119.424-175.75424-119.424-288.31744 0-4.70528 0.11776-10.66496 0.45568-17.75616 0.2816-6.97344 0.68096-12.76416 1.0752-17.41824a27.71968 27.71968 0 0 1 29.89568-25.41056 27.8016 27.8016 0 0 1 25.41568 29.95712 318.70976 318.70976 0 0 0-1.08032 15.2576 359.80288 359.80288 0 0 0-0.2816 15.37536c0 97.23904 39.42912 185.34912 103.19872 249.05728a354.2784 354.2784 0 0 0 22.04672 20.16768c1.4592 1.2288 2.89792 2.47296 4.37248 3.67616a350.2848 350.2848 0 0 0 19.15904 14.5152c2.85696 2.0224 5.70368 4.04992 8.61696 5.98528a358.71232 358.71232 0 0 0 29.2352 17.47968 344.22784 344.22784 0 0 0 12.39552 6.3488 358.1184 358.1184 0 0 0 18.2016 8.14592 341.07392 341.07392 0 0 0 31.76448 11.44832 347.14112 347.14112 0 0 0 11.07456 3.14368 350.4896 350.4896 0 0 0 22.3488 5.3248c2.78016 0.55808 5.60128 1.00864 8.40704 1.50016 8.58624 1.49504 17.23904 2.816 26.0352 3.68128 0.24064 0.0256 0.48128 0.03072 0.72192 0.05632 8.3968-0.72704 16.83968-1.28512 25.42592-1.28512 10.98752 0 21.79584 0.73216 32.46592 1.92 2.38592-0.1536 4.81792-0.13312 7.18848-0.33792 1.55136-0.13312 3.1232-0.19968 4.66944-0.35328 8.79616-0.86528 17.44896-2.18624 26.0352-3.68128 2.80576-0.49664 5.62176-0.94208 8.40192-1.50016 7.55712-1.5104 14.98624-3.34336 22.35392-5.3248 3.70688-1.00352 7.41376-2.0224 11.06944-3.14368 6.49728-1.97632 12.89216-4.16768 19.22048-6.5024 4.21888-1.56672 8.3968-3.2256 12.53888-4.94592a352.03072 352.03072 0 0 0 18.21184-8.14592c4.18304-2.02752 8.30464-4.16256 12.39552-6.3488 4.77696-2.54976 9.472-5.21728 14.11072-7.97696a356.5056 356.5056 0 0 0 15.11424-9.4976c2.93376-1.9456 5.79584-3.98848 8.66816-6.02112a353.07008 353.07008 0 0 0 19.10784-14.47936c1.48992-1.21344 2.944-2.47296 4.41344-3.712a353.3312 353.3312 0 0 0 22.016-20.14208c63.7696-63.70816 103.19872-151.81312 103.19872-249.05728 0-6.41024-0.11264-11.52-0.2816-15.37536-0.16896-3.968-0.512-9.07264-1.08032-15.2576-1.24928-15.26272 10.10176-28.65152 25.41568-29.95712a27.7248 27.7248 0 0 1 29.89568 25.41056c0.39424 4.65408 0.79872 10.4448 1.0752 17.41824a376.3712 376.3712 0 0 1 0.45568 17.75616c0.02048 112.56832-45.5936 214.51776-119.40352 288.32768zM270.03904 588.96896c0 64.95744 26.38336 123.79136 68.93056 166.33856 42.5472 42.55232 101.38112 68.87936 166.33856 68.87936 64.95744 0 123.73504-26.32704 166.28224-68.87936 42.60352-42.5472 68.93056-101.38112 68.93056-166.33856 0-64.95744-26.32704-123.73504-68.93056-166.33856-35.53792-35.54304-82.47808-59.51488-134.8096-66.52928l-0.09728 0.00512c-0.5632 0.03072-1.11616 0.09216-1.67936 0.11776a408.1408 408.1408 0 0 1-20.39296 0.52736l-0.21504-0.00512-0.21504 0.00512c-6.84032 0-13.63456-0.18944-20.39296-0.52736-0.5632-0.03072-1.11616-0.08704-1.67936-0.11776a402.9952 402.9952 0 0 1-12.49792-0.89088 234.496 234.496 0 0 0-140.6464 67.40992c-42.54208 42.60864-68.92544 101.38112-68.92544 166.34368z"  horiz-adv-x="1024" />

    
    <glyph glyph-name="shangchuantouxiang1-copy" unicode="&#58894;" d="M501.52 214.678c0 96.217 47.172 181.404 119.642 233.732 0.639 3.361 1.198 6.737 1.668 10.127 9.217 1.796 17.349 7.359 22.499 15.182 9.799 14.529 13.323 32.271 14.971 49.447 1.499 15.092-4.527 30.733-16.602 40.11 14.971 49.765 25.396 102.094 19.997 154.254-3.148 31.043-13.993 62.794-37.53 84.354-16.16 14.946-37.676 22.66-59.125 25.936-5.254 7.879-11.862 14.927-20.036 19.803-22.078 13.574-48.662 17.038-74.117 17.556-45.015-0.689-92.337-8.257-129.513-35.361-18.575-13.341-33.445-31.663-43.278-52.281-12.117-25.207-17.221-53.267-18.37-81.060-1.791-44.986 6.131-89.708 17.013-133.195-11.406-8.882-17.532-23.393-16.762-37.776 0.897-14.238 3.731-28.54 9.466-41.676 5.045-12.069 14.781-22.953 28.165-25.351 3.42-24.768 11.783-48.698 23.5-70.731 6.861-12.258 14.322-24.79 25.771-33.338 0.019-29.956 1.246-60.089-2.255-89.873-9.193-26.337-34.255-42.284-57.667-54.833-51.121-25.79-107.454-40.489-156.364-70.756-21.225-13.574-41.405-29.631-56.273-50.187-19.222-26.119-28.814-58.269-30.709-90.415 177.918 0.025 355.825 0.013 533.733 0.015-59.97 52.801-97.824 130.131-97.824 216.316zM787.988 442.32c-124.487 0-225.407-100.921-225.407-225.407 0-124.489 100.919-225.407 225.407-225.407s225.407 100.918 225.407 225.407c0 124.486-100.919 225.407-225.407 225.407zM940.248 203.194c0-9.921-9.601-17.965-21.447-17.965h-99.129v-99.127c0-11.846-8.043-21.447-17.964-21.447h-27.441c-9.92 0-17.964 9.599-17.964 21.447v99.127h-99.127c-11.845 0-21.447 8.043-21.447 17.965v27.44c0 9.921 9.601 17.965 21.447 17.965h99.127v99.127c0 11.844 8.043 21.446 17.964 21.446h27.441c9.92 0 17.964-9.601 17.964-21.446v-99.127h99.129c11.845 0 21.447-8.043 21.447-17.965v-27.44z"  horiz-adv-x="1024" />

    
    <glyph glyph-name="huiyuanguanli1" unicode="&#59005;" d="M604.7 532.4m-180.7 0a180.7 180.7 0 1 1 361.4 0 180.7 180.7 0 1 1-361.4 0ZM896.2 78.8c0-85.5-137.9-66-308-66s-308-18.2-308 66c0 9.7 0.5 19.3 1.5 28.8 1.2 12 3.2 23.8 5.9 35.4 30.8 131 153.7 228.9 300.6 228.9 159.5 0 290.6-115.3 306.4-263.1 1-9.9 1.6-19.9 1.6-30zM583.1 9.9c-19.9 0-41.2 0.4-63.8 0.9-24.3 0.5-49.4 1-75.4 1-25.1 0-49.3-0.4-72.7-0.8-106-1.8-182.6-3.2-220.4 33.9-14.3 14-21.5 32.2-21.5 54 0 9.9 0.5 19.9 1.5 29.7 1.3 12.2 3.3 24.5 6.1 36.5 15.4 65.7 54.3 125.3 109.4 167.9 27.4 21.1 58 37.6 91.1 49 34.1 11.7 69.9 17.7 106.5 17.7 78.2 0 153.2-27.6 211.1-77.7 57.8-50 94-118.2 101.9-192.1 1.1-10.2 1.6-20.6 1.6-30.8 0-22.1-7.3-40.5-21.7-54.7-29.5-29.1-82.1-34.5-153.7-34.5z m-139.2 51.8c26.5 0 51.8-0.5 76.4-1 47.3-0.9 88.1-1.7 121.1 1.3 30.9 2.8 51.2 8.8 60.5 17.8 3.1 3.1 6.7 8 6.7 19 0 8.5-0.5 17.1-1.4 25.5-13.7 128.3-126.9 225.1-263.3 225.1-123 0-231.6-82.4-258.3-195.9-2.3-9.9-4-20-5.1-30.1-0.8-8.1-1.3-16.4-1.3-24.6 0-10.6 3.5-15.4 6.6-18.4 9.3-9.1 30-15.2 61.4-18.1 33.5-3.1 75-2.3 123-1.5 23.7 0.5 48.2 0.9 73.7 0.9zM439.2 351c-113.4 0-205.7 92.3-205.7 205.7s92.3 205.7 205.7 205.7c113.4 0 205.7-92.3 205.7-205.7S552.6 351 439.2 351z m0 361.4c-85.9 0-155.7-69.9-155.7-155.7 0-85.9 69.9-155.7 155.7-155.7s155.7 69.9 155.7 155.7c0 85.9-69.8 155.7-155.7 155.7zM441.3 122.5c-42.1 0-90.8 14.3-137.7 60.8-9.8 9.7-9.8 25.6-0.1 35.4 9.7 9.8 25.6 9.8 35.4 0.1 42.4-42.2 91.4-55.6 145.4-39.8 41.4 12 71 37.2 71.3 37.5 10.4 9.1 26.2 8 35.3-2.4 9.1-10.4 8-26.2-2.4-35.3-1.5-1.3-37.7-32.5-90.2-47.8-16.6-5-36-8.5-57-8.5z"  horiz-adv-x="1024" />

    
    <glyph glyph-name="shengyi" unicode="&#58892;" d="M579.865 276.571c-35.89-28.297-42.07-80.297-13.794-116.192 28.276-35.902 80.285-42.083 116.175-13.799 35.901 28.264 42.069 80.271 13.8 116.166-28.266 35.903-80.26 42.084-116.181 13.825z m92.368-107.293c2.663-3.366 2.073-8.278-1.307-10.947-3.385-2.657-8.291-2.072-10.941 1.3l-2.085 2.645c-13.254-6.287-29.044-3.436-37.874 7.789-2.688 3.378-2.085 8.284 1.288 10.94a7.797 7.797 0 0 0 10.953-1.287c5.049-6.438 15.219-6.915 22.655-1.05 7.425 5.841 9.353 15.836 4.284 22.261-5.058 6.432-15.25 6.902-22.662 1.049-14.17-11.161-34.156-9.534-44.545 3.656-8.843 11.224-7.908 27.246 1.307 38.653l-2.499 3.177c-2.671 3.38-2.081 8.292 1.306 10.948 3.373 2.664 8.284 2.079 10.934-1.3l2.507-3.179c13.254 6.287 29.045 3.436 37.9-7.787 2.637-3.386 2.071-8.285-1.307-10.948-3.386-2.663-8.291-2.072-10.954 1.306-5.068 6.413-15.231 6.896-22.649 1.049-7.431-5.858-9.359-15.834-4.296-22.265 5.073-6.438 15.225-6.916 22.662-1.056 14.17 11.161 34.168 9.528 44.532-3.656 8.843-11.211 7.914-27.233-1.308-38.641l2.099-2.657zM511.358 893.75C230.185 893.75 2.25 665.815 2.25 384.642s227.935-509.111 509.108-509.111c281.17 0 509.108 227.938 509.108 509.111S792.528 893.75 511.358 893.75zM263.659 612.253c0 49.118 100.151 88.877 223.724 88.877 123.585 0 223.729-39.759 223.729-88.877v-53.313c0-49.029-100.144-88.833-223.729-88.833-123.573 0-223.724 39.803-223.724 88.833v53.313z m0-131.09c51.385-37.654 139.521-55.499 223.724-55.499 84.191 0 172.338 17.845 223.729 55.499v-51.04c0-49.105-100.144-88.876-223.729-88.876-123.573 0-223.724 39.771-223.724 88.876v51.04z m0-130.551c51.122-37.467 138.805-55.212 222.568-55.212 10.728 0 21.52 0.403 32.297 0.993-17.813-23.686-28.491-53.03-28.503-84.931-1.256-0.013-2.525-0.038-3.794-0.038-122.938 0-222.568 39.558-222.568 88.404v50.784z m223.724-275.906c-123.573 0-223.724 39.765-223.724 88.87v53.299c0 0.586 0.44 1.2 0.44 1.811 51.46-37.416 139.281-55.109 223.284-55.109 3.919 0 7.562 0.037 11.055 0.118 12.7-35.438 39.037-64.261 72.748-80.245-24.761-5.591-49.131-8.744-83.803-8.744z m263.388 2.927l-6.269-4.931c-10.406-8.21-26.593-5.013-36.159 7.128l-38.188 36.87c-41.373-17.06-90.642-5.503-119.709 31.393-35.061 44.508-27.393 109.02 17.121 144.08 44.521 35.056 109.026 27.398 144.086-17.127 29.058-36.877 28.762-87.489 2.456-123.712l38.208-36.869c9.559-12.142 8.869-28.636-1.546-36.832z"  horiz-adv-x="1024" />

    
    <glyph glyph-name="hao1" unicode="&#58891;" d="M984.191664 434.391562h-428.184484v415.402859c0 19.17244-19.17244 44.735692-44.735693 44.735692-25.563253 0-44.735692-25.563253-44.735692-51.126506v-415.402858H51.132936c-25.563253 6.390813-51.126506-19.17244-51.126505-44.735693s25.563253-44.735692 44.735692-44.735692h415.402859v-415.402858c6.390813-25.563253 25.563253-51.126506 51.126505-51.126506s44.735692 25.563253 44.735693 44.735692v421.793672h421.793671c25.563253 0 44.735692 25.563253 44.735693 44.735692s-12.781626 51.126506-38.34488 51.126506z"  horiz-adv-x="1027" />

    
    <glyph glyph-name="Serviceusers" unicode="&#58893;" d="M100.218036 100.03998l262.909977 142.960987v8.369c-112.27799 85.775992-127.619989 240.592979-127.619989 364.724968A251.053978 251.053978 0 0 0 506.786 895.04291h9.065A251.749978 251.749978 0 0 0 787.129976 616.094935c0-126.921989-15.341999-278.948975-127.619989-367.514968v-8.367999L921.721964 97.24998a69.736994 69.736994 0 0 0 36.960997-62.065994v-93.447992A69.736994 69.736994 0 0 0 888.944967-128h-755.949934a69.736994 69.736994 0 0 0-69.736994 69.736994v96.236991a69.736994 69.736994 0 0 0 36.959997 62.065995z m216.882981 521.633954c0-120.644989 12.551999-252.448978 109.486991-313.816972a43.236996 43.236996 0 0 0 18.828998-35.565997v-69.736994c0-14.644999-11.854999-28.591997-36.959997-41.841996a1457.504872 1457.504872 0 0 1-255.237977-135.987988v-73.920994h714.804937v76.012993A1711.34785 1711.34785 0 0 1 614.179991 162.803974q-37.657997 20.222998-37.657997 41.841997v69.736994a42.539996 42.539996 0 0 0 19.525999 35.565997c94.842992 59.275995 109.48699 191.079983 109.48699 311.724972A170.158985 170.158985 0 0 1 515.851 815.542917h-9.065c-126.224989 0-189.684983-65.552994-189.684983-193.869983z"  horiz-adv-x="1024" />

    
    <glyph glyph-name="jiantou-copy" unicode="&#58890;" d="M141.21066668 544.67626667c0 16.84586668 6.672 32.53546667 18.77973332 44.1792 24.33386666 23.43146667 63.2256 22.7104 86.68906667-1.6128l267.09973333-277.11573334L776.90453333 588.26666667c23.24906667 24.5504 62.13866667 25.63626666 86.70933334 2.4192 12.18666667-11.55946667 19.17333333-27.8144 19.17333333-44.5856 0-15.73013333-5.94773333-30.68906667-16.75626667-42.1248L559.01546667 179.37706666999998c-18.06826667-19.136-46.50986667-24.2144-70.7552-12.63146667-1.81866667 0.83306667-3.216 1.80586667-4.01173334 2.37973333a70.28266667 70.28266667 0 0 1-1.49226666 0.79786667c-2.9248 1.54666667-6.81066667 3.59786667-10.512 7.1328l-0.24 0.23253333c-0.22293333 0.21653333-0.42346667 0.43093333-0.6112 0.62933334a21.1424 21.1424 0 0 0-2.78293334 2.32L158.3776 502.11413332c-11.07413333 11.51466667-17.16906667 26.62613333-17.16906667 42.56106668z"  horiz-adv-x="1024" />

    
    <glyph glyph-name="shengyijing" unicode="&#58948;" d="M746.667 725.333a64 64 0 0 0 64-64V64a64 64 0 0 0-64-64H277.333a64 64 0 0 0-64 64V661.333a64 64 0 0 0 64 64h469.334z m0-618.666H277.333V64h469.334v42.667zM341.333 661.333h-64v-490.666h469.334V661.333h-192v-256L448 452.395l-106.667-47.062v256z m149.334 0h-85.334v-157.802L448 522.347l42.667-18.816V661.333z"  horiz-adv-x="1024" />

    
    <glyph glyph-name="xiaochengxu1" unicode="&#58958;" d="M388.928785 138.846972c-77.735766 0-140.974187 60.405606-140.974187 134.600354s63.238421 134.704502 140.974187 134.704502c14.30988 0 25.932752-11.081304 25.932752-24.745469s-11.602042-20.704542-25.932752-20.704543c-49.136836 0-93.19127-42.221436-93.191269-89.150342s44.033604-89.150343 93.191269-89.150343 89.858546 42.263095 93.19127 89.150343c0.978987 13.643335 7.561116 24.745469 21.870995 24.745469s25.932752-11.081304 25.932751-24.745469c0-74.215577-63.238421-134.600354-140.974186-134.600354z m0 0M503.97022 242.265536a26.515978 26.515978 0 0 0-18.954862 7.831899c-4.915767 4.999085-3.353553 11.727019-2.874474 18.579931l11.768678 225.33374c0.479079 73.819817 63.530034 133.725514 140.974187 133.725514s140.974187-60.405606 140.974187-134.600353-63.238421-134.600354-140.974187-134.600354c-14.30988 0-25.932752 8.331808-25.932751 22.058461s11.664531 23.39155 25.953581 23.39155c49.157666 0 93.19127 42.221436 93.191269 89.150343s-44.033604 89.150343-93.191269 89.150342-93.19127-42.221436-93.19127-89.150342v-1.666362l-11.810337-226.125262a25.453673 25.453673 0 0 0-25.932752-23.079107z m0 0M512.010415 896C229.24969 896 0.02083 666.77114 0.02083 384.010415s229.208031-512.010415 511.989585-512.010415 511.989585 229.22886 511.989585 511.989585S794.77114 896 512.010415 896z m0-984.778015c-261.098025 0-472.830089 211.669575-472.830089 472.830089s211.669575 472.830089 472.830089 472.830089 472.830089-211.669575 472.830089-472.830089-211.732064-472.830089-472.830089-472.830089z"  horiz-adv-x="1024" />

    
    <glyph glyph-name="shengyizhuanjialogo" unicode="&#58889;" d="M4083.274891 896h85.669577v-18.07276h-31.333941v-79.567086h-22.532272V877.92724h-31.803364z m166.527575 0l-17.133916-64.428216a16.429782 16.429782 0 0 1-0.938844-7.041335 29.456252 29.456252 0 0 1 0-3.520667c0 5.281001-1.0562 8.801669-1.290912 10.562002L4213.187523 895.647933h-32.742208v-97.639846h20.771939V851.756945 870.768549a71.938973 71.938973 0 0 0 0 7.510758c1.408267-6.454557 2.581823-11.735558 3.520667-15.021515l18.07276-64.897638h18.542183l18.190115 63.137304a168.992042 168.992042 0 0 1 3.520668 16.781849c-0.586778-8.566958-0.938845-15.843004-0.938845-22.06285v-57.856303h21.241361V896z m-679.136768-37.788498H3434.181154l-33.211631-66.423261h-310.757587v-194.927626h105.620026v109.140694h678.902056v-109.140694h101.395225V791.788241H3537.454068z m-1748.598208-627.969733h-721.736844V534.5448h721.736844z m-101.160514 124.866342h-518.946394v-58.677792h518.946394z m0 113.130784h-518.946394v-58.677793h518.946394z m206.78054 97.405135H995.180042v74.051374h249.732684l-53.044724 78.041463H1053.740479V791.905597h341.152684l33.094275 66.305905h136.484544l-33.094274-66.305905h341.622106v-74.16873h-146.107703L1678.54161 639.695404h249.732684zM1561.186026 639.695404c5.163646 7.862824 45.416611 70.413351 50.697613 78.041463h-304.537742l54.335636-78.041463h199.504493m35.206675-471.182672h-231.659923v-66.18855H1596.392701z m70.413351-43.890989c-7.276046-36.849654-21.241361-66.18855-62.433171-66.188549h-264.871554a58.677792 58.677792 0 0 0-57.504236 58.677792v82.148909h-101.512581v-105.620026q-3.872734-120.993608 120.993608-117.355584H1631.599377c80.623287-2.581823 103.977048 26.05294 121.110963 82.148909 5.867779 18.894249 14.552092 103.859692 15.490937 110.079538h-96.935713c-1.173556-16.195071-4.459512-43.773633-4.459512-43.773633m-505.333147 74.520796H1039.657809a79.684442 79.684442 0 0 0 23.471117-59.381926c-1.408267-33.21163-28.400051-65.719127-74.051374-71.586906a485.734764 485.734764 0 0 0-52.810013-2.229756H546.529643V297.838586H854.705408v101.395225H546.529643V596.860615h339.39235v101.395225H546.529643V858.211502h-109.258049v-159.955662H242.226613c13.495892 28.986829 26.405006 60.203415 38.492631 93.884468h-117.355584c-35.206675-121.228319-79.332375-207.484673-163.358974-283.531092v-96.348935c68.770372 40.370321 147.51597 125.922542 195.397048 184.600334h241.86986v-197.626804H129.447896v-101.395225h307.823698v-231.777279H0.356753v-89.777022h967.127371c103.038203 0 193.988781 32.742208 193.988781 222.97561m2763.606658 342.678307c-75.459641-38.962054-183.66149-98.34398-296.32285-147.750681-24.409962 46.942234-56.682747 100.573736-80.623287 137.540745 32.859564 18.307471 56.917458 26.05294 88.838178 41.543877h182.722645v78.041463h-569.29194v-77.924108h166.762285c-68.183595-60.907548-182.135867-115.477895-312.869988-156.904416a117.942362 117.942362 0 0 0 9.271091-44.595122 1302.646987 1302.646987 0 0 1 328.595636 119.233274 77.572041 77.572041 0 0 0 17.133916-23.471117c-84.613376-77.572041-193.519359-121.580385-346.081619-177.089577a164.297818 164.297818 0 0 0 14.90416-49.289346c132.846522 31.686008 266.749243 68.887728 375.53787 144.347369a289.633582 289.633582 0 0 0 23.471117-53.162079c-114.069628-91.185289-235.415302-131.55561-401.473455-172.043287a174.507754 174.507754 0 0 0 7.158691-53.631502s132.61181 18.776894 227.200411 43.656277c81.562131 21.358716 183.309423 79.684442 183.309423 79.684442 0-109.610116-115.008473-189.294558-246.446727-210.418563-226.848345-36.262876-542.417511 43.186855-651.440849 103.39027L2887.30413 284.694761v105.620026h-589.125034l53.279436 106.441515H2981.188598V586.181257h-584.900233l56.095969 112.074583h473.999206v93.884468h-427.174328l33.211631 66.305905h-124.866342l-33.21163-66.305905h-282.826959v-93.884468h236.00208l-56.095969-112.074583h-234.711169v-89.777022h189.881336l-98.109269-196.101182h614.591196L2549.320047 181.421846c-48.585212 27.695918-93.884468 48.819923-151.975482 48.819923-49.641412 0-87.664622-17.485982-174.390398-78.158819-83.087754-58.091014-165.354018-111.018383-229.782235-111.018383-56.095969 0-95.527446 37.319076-99.282824 83.909243a124.39692 124.39692 0 0 0 17.838049 74.286085h-124.514275c0-187.768935 118.059718-222.97561 205.95905-222.97561 90.129089 0 156.317638 27.930629 241.048371 72.760462 77.454686 40.957099 116.182029 44.947189 158.430039 44.947189 61.846393 0 119.820052-19.950449 189.881335-52.810013 267.688088-125.570475 524.227396-167.349063 740.279027-153.61846 360.868422 23.471117 388.094918 293.388961 344.086574 413.795791l41.895943 21.593427c74.755507-194.340848 228.608678-313.691477 228.608679-313.691477 14.786804 16.547137 25.935584 31.451297 38.023209 47.763723 0 0-136.6019 170.048242-168.053197 307.471631l168.053197 76.398486z"  horiz-adv-x="4340" />

    
    <glyph glyph-name="faduanxin" unicode="&#59061;" d="M920 736H104c-22.1 0-40-17.9-40-40v-624c0-22.1 17.9-40 40-40h816c22.1 0 40 17.9 40 40V696c0 22.1-17.9 40-40 40z m-32-632H136V664h752v-560zM869 686L512 445.1 155 686h-41v-61l390.3-263c2.3-1.3 4.9-2 7.7-2s5.4 0.7 7.7 2L910 625v61h-41z"  horiz-adv-x="1024" />

    
    <glyph glyph-name="xiaoshouchaxun1" unicode="&#59113;" d="M353.792 30.208H233.472c-17.408 0-32.256 14.336-32.256 32.256V766.464c0 17.408 14.336 32.256 32.256 32.256h522.24c17.408 0 32.256-14.336 32.256-32.256v-256c0-17.408 19.456-32.256 37.376-32.256 17.408 0 27.136 14.336 27.136 32.256v256c0 52.736-43.008 96.256-96.256 96.256h-522.24c-52.736 0-96.256-43.008-96.256-96.256v-704c0-52.736 43.008-96.256 96.256-96.256h120.32c17.408 0 32.256 14.336 32.256 32.256-1.024 17.408-15.36 31.744-32.768 31.744zM697.344 606.208c0 17.408-12.288 32.256-28.16 32.256H304.64c-15.36 0-28.16-14.336-28.16-32.256 0-17.408 12.288-32.256 28.16-32.256h365.056c14.848 0.512 27.648 14.848 27.648 32.256zM304.64 446.464c-15.36 0-28.16-14.336-28.16-32.256 0-17.408 12.288-32.256 28.16-32.256h83.968c15.36 0 28.16 14.336 28.16 32.256 0 17.408-12.288 32.256-28.16 32.256H304.64zM948.736-39.936l-55.808 55.808c89.6 112.128 81.408 275.456-20.992 379.392-55.808 55.808-128 83.456-201.728 83.456s-145.408-27.136-201.728-83.456c-110.592-110.592-110.592-291.328 0-403.456 55.808-55.808 128-83.456 201.728-83.456 62.464 0 124.928 20.992 177.664 62.464l55.808-55.808c6.656-6.656 14.336-9.728 22.528-9.728s15.872 3.072 22.528 9.728c12.8 12.8 12.8 32.256 0 45.056z m-278.528 12.8c-59.392 0-113.664 22.528-156.672 64-41.472 41.472-64 97.792-64 156.672 0 59.392 22.528 113.664 64 156.672 41.472 41.472 97.792 64 156.672 64s113.664-22.528 156.672-64c41.472-41.472 64-97.792 64-156.672 0-59.392-22.528-113.664-64-156.672-43.008-41.472-97.28-64-156.672-64z"  horiz-adv-x="1024" />

    
    <glyph glyph-name="shouyinjizhang" unicode="&#58964;" d="M934.5 832H601.9c-31.6 0-57.5-25.9-57.5-57.5v-332.6c0-31.6 25.9-57.5 57.5-57.5h332.6c31.6 0 57.5 25.9 57.5 57.5V774.5c0 31.6-25.9 57.5-57.5 57.5z m-63-256.8H664.9v66h206.5v-66zM422.1 832H89.5C57.9 832 32 806.1 32 774.5v-332.6c0-31.6 25.9-57.5 57.5-57.5h332.6c31.6 0 57.5 25.9 57.5 57.5V774.5c0 31.6-25.9 57.5-57.5 57.5z m-63-256.8h-70.2V505h-66v70.2h-70.2v66h70.2v70.2h66v-70.2h70.2v-66zM422.1 319.6H89.5c-31.6 0-57.5-25.9-57.5-57.5v-332.6c0-31.6 25.9-57.5 57.5-57.5h332.6c31.6 0 57.5 25.9 57.5 57.5V262.1c0 31.6-25.9 57.5-57.5 57.5z m-69.9-273.5l-46.7-46.7-49.7 49.7-49.7-49.7-46.7 46.7 49.7 49.7-49.7 49.7 46.7 46.7 49.7-49.7 49.7 49.7 46.7-46.7-49.7-49.7 49.7-49.7zM934.5 319.6H601.9c-31.6 0-57.5-25.9-57.5-57.5v-332.6c0-31.6 25.9-57.5 57.5-57.5h332.6c31.6 0 57.5 25.9 57.5 57.5V262.1c0 31.6-25.9 57.5-57.5 57.5z m-73.9-172V97h-67v-16.4h67V30h-67v-59.6H743V30h-67v50.6h67V97h-67v50.6h30.9l-34.6 43.2 40.6 30.4 55.4-70.5 55.4 70.5 40.4-30.3-33.2-43.3h29.7z"  horiz-adv-x="1024" />

    
    <glyph glyph-name="luntan" unicode="&#58880;" d="M1079.168215 896L511.184944 896c-31.23908 0-56.798327-25.559247-56.798327-56.798327l0-113.596654L113.596654 725.605019c-62.47816 0-113.596654-51.118494-113.596654-113.596654l0-454.386617c0-62.47816 51.118494-113.596654 113.596654-113.596654l59.638243 0c17.039498 0 25.559247-11.359665 22.719331-28.399164l-14.199582-76.677742c-11.359665-62.47816 22.719331-85.197491 76.677742-51.118494l207.313894 124.95632c28.399164 17.039498 73.837825 28.399164 105.076905 28.399164l227.193308 0c62.47816 0 113.596654 51.118494 113.596654 113.596654l0 193.114312 0 0 19.879414-14.199582C979.771143 299.617565 1022.369888 322.336896 1022.369888 384.815056l0-28.399164c0 14.199582 11.359665 28.399164 28.399164 28.399164l28.399164 0c31.23908 0 56.798327 25.559247 56.798327 56.798327L1135.966542 839.201673C1135.966542 870.440753 1110.407295 896 1079.168215 896zM851.974907 157.62174800000003c0-31.23908-25.559247-56.798327-56.798327-56.798327l-241.39289 0c-31.23908 0-79.517658-14.199582-105.076905-31.23908l-184.594563-116.436571c-14.199582-8.519749-22.719331-2.839916-17.039498 11.359665L264.112221 44.02509299999997c5.679833 31.23908-14.199582 56.798327-45.438662 56.798327L113.596654 100.82342000000006c-31.23908 0-56.798327 25.559247-56.798327 56.798327L56.798327 612.008364c0 31.23908 25.559247 56.798327 56.798327 56.798327l681.579925 0c31.23908 0 56.798327-25.559247 56.798327-56.798327L851.974907 157.62174800000003zM1079.168215 470.012547c0-17.039498-11.359665-28.399164-28.399164-28.399164l-28.399164 0c-31.23908 0-56.798327-25.559247-56.798327-56.798327l0 17.039498c0-17.039498-11.359665-22.719331-22.719331-14.199582L908.773234 410.374303l0 0L908.773234 612.008364c0 62.47816-51.118494 113.596654-113.596654 113.596654L511.184944 725.605019 511.184944 810.802509c0 14.199582 14.199582 28.399164 28.399164 28.399164l511.184944 0c14.199582 0 28.399164-14.199582 28.399164-28.399164L1079.168215 470.012547zM539.584108 328.01672900000005L198.794145 328.01672900000005c-17.039498 0-28.399164-11.359665-28.399164-28.399164 0-17.039498 14.199582-28.399164 28.399164-28.399164l340.789963 0c17.039498 0 28.399164 11.359665 28.399164 28.399164C567.983271 316.657063 553.783689 328.01672900000005 539.584108 328.01672900000005zM709.979089 498.41171L198.794145 498.41171c-14.199582 0-28.399164-11.359665-28.399164-28.399164 0-17.039498 11.359665-28.399164 28.399164-28.399164l511.184944 0c14.199582 0 28.399164 11.359665 28.399164 28.399164C738.378252 487.052045 727.018587 498.41171 709.979089 498.41171z"  horiz-adv-x="1136" />

    
    <glyph glyph-name="duanxinsvg" unicode="&#58881;" d="M512 384m-512 0a512 512 0 1 1 1024 0 512 512 0 1 1-1024 0ZM512 384m-433.230769 0a433.230769 433.230769 0 1 1 866.461538 0 433.230769 433.230769 0 1 1-866.461538 0ZM697.107692 620.307692H326.892308C275.692308 620.307692 236.307692 576.984615 236.307692 517.907692V265.846154c0-55.138462 39.384615-98.461538 90.584616-98.461539V68.923077l185.107692 98.461538h185.107692c51.2 0 90.584615 43.323077 90.584616 98.461539V517.907692C787.692308 573.046154 748.307692 620.307692 697.107692 620.307692z m-322.953846-252.061538c-23.630769 0-47.261538 23.630769-47.261538 51.2s19.692308 51.2 47.261538 51.2c23.630769 0 47.261538-23.630769 47.261539-51.2s-23.630769-51.2-47.261539-51.2z m137.846154 0c-23.630769 0-47.261538 23.630769-47.261538 51.2s19.692308 51.2 47.261538 51.2c23.630769 0 47.261538-23.630769 47.261538-51.2s-23.630769-51.2-47.261538-51.2z m137.846154 0c-23.630769 0-47.261538 23.630769-47.261539 51.2s19.692308 51.2 47.261539 51.2c23.630769 0 47.261538-23.630769 47.261538-51.2s-23.630769-51.2-47.261538-51.2z"  horiz-adv-x="1024" />

    
    <glyph glyph-name="huiyuanfenxi" unicode="&#58925;" d="M512 384m-512 0a512 512 0 1 1 1024 0 512 512 0 1 1-1024 0ZM784.606 427.836H638.351a25.131 25.131 0 0 0 0 50.261h146.255a25.131 25.131 0 0 0 0-50.261z m-1.359 110.278H617.619a26.495 26.495 0 0 0 0 52.989h165.628a26.495 26.495 0 0 0 0-52.989z m-348.24-167.786c-76.706 0-139.141 61.767-139.141 137.761 0 76.088 62.435 137.854 139.141 137.854 76.8 0 139.141-61.766 139.141-137.762S511.8 370.328 435.007 370.328z m47.981-10.605c95.233 0 172.767-76.743 172.767-170.971v-9.489h0.1c0-57.205-80.129-57.205-172.765-57.205h-96.166c-96.526 0-172.766 0-172.766 57.205v9.489c0 94.324 77.538 170.971 172.766 170.971h96.064z m152.429-18.4a25.079 25.079 0 0 0 25.026 25.131h124.163a25.131 25.131 0 0 0 0-50.261H660.443a25.079 25.079 0 0 0-25.026 25.129z"  horiz-adv-x="1024" />

    
    <glyph glyph-name="lipin" unicode="&#58935;" d="M488.514 133.6a27.46 27.46 0 1 1 54.921 0 27.46 27.46 0 1 1-54.921 0zM488.514 229.713a27.46 27.46 0 1 1 54.921 0 27.46 27.46 0 1 1-54.921 0zM488.514 326.549a27.46 27.46 0 1 1 54.921 0 27.46 27.46 0 1 1-54.921 0zM828.16 617.778H667.733c18.789 13.008 28.906 28.184 33.965 41.192 10.84 26.738 3.613 52.753-8.672 67.206-4.336 5.782-22.403 25.293-53.477 23.848-39.023-2.168-79.492-35.41-123.573-101.894-43.36 66.484-84.55 100.449-123.574 101.894-31.074 1.445-49.14-18.066-53.477-23.848-12.285-14.453-19.511-40.468-8.671-67.206 5.058-13.008 15.175-27.461 33.964-41.192H203.066c-27.461 0-49.863-22.402-49.863-49.863v-132.968c0-4.336 1.445-8.672 3.613-13.008l9.394-16.62v-347.597c0-27.46 22.403-49.863 49.863-49.863H814.43c27.461 0 49.864 22.402 49.864 49.863V405.318l9.394 16.621c2.168 3.614 3.613 7.95 3.613 13.008V567.193c0.723 28.183-21.68 50.585-49.14 50.585z m-187.889 81.66h1.445c5.782 0 8.672-2.89 10.117-4.336l1.446-1.445c0.722-1.445 3.613-7.95 0-17.344-3.614-7.949-19.512-31.074-87.441-43.359 41.914 58.535 66.484 65.762 74.433 66.484z m-263.769-5.781c0.723 0.723 1.446 1.445 1.446 2.168 0 0 3.613 3.613 10.117 3.613h0.723c7.949-0.722 33.242-7.226 75.156-66.484-67.93 12.285-83.828 35.41-87.442 43.36-3.613 9.394-0.722 15.898 0 17.343zM203.788 449.4l-0.722 117.793h286.893V449.4H203.79zM814.43 57.722H216.796V398.814H814.43v-341.092zM827.438 449.4H540.545V567.193h286.893V449.4z"  horiz-adv-x="1024" />

    
    <glyph glyph-name="set" unicode="&#58916;" d="M957.1 262.20000000000005c1.2-7.7 0.9-17-1-27.9-1.9-10.9-5.1-22-9.6-33.2s-9.9-21.3-16.3-30.3-13.4-15.4-21.1-19.3c-7.7-3.9-14.4-5.8-20.1-5.8-5.8 0-12.2 1.2-19.2 3.8-6.4 1.9-14.4 3.6-24 5.3-9.6 1.6-19.4 2-29.3 1-9.9-0.9-19.8-3-29.7-6.2-9.9-3.2-18.4-8.7-25.5-16.4-15.3-16.1-24.3-34.3-26.8-54.8s0.3-40.1 8.6-58.7c6.4-12.8 5.5-25.7-2.8-38.5-3.9-5.1-10-10.5-18.3-15.8-8.3-5.5-17.5-10.5-27.3-15-9.9-4.5-20.3-8.1-31.2-10.6-10.9-2.6-20.5-3.8-28.8-3.8-5.8 0-11.2 2.2-16.3 6.7-5.1 4.5-8.5 9.3-10.5 14.5h-0.9c-7 19.9-19.1 37-36 51.5-17 14.5-36.6 21.7-59 21.7-21.8 0-41.4-7.2-59-21.7s-29.9-31.3-37-50.5c-3.2-7.7-8-13.3-14.4-16.9-6.4-3.5-13.4-5.3-21.1-5.3-8.9 0-19 1.6-30.2 4.8-11.2 3.3-22.4 7.2-33.6 12-11.2 4.8-21.3 10.4-30.3 16.9-8.9 6.4-15.6 12.8-20.1 19.3-3.2 4.5-5 9.7-5.3 15.8-0.3 6 2.1 14.6 7.2 25.5 7 14.8 9.8 31.6 8.2 50.5-1.6 18.9-9.8 36.4-24.5 52.5-9 9.6-19.8 15.8-32.6 18.8-12.8 2.9-25 4-36.5 3.4-13.4-0.6-27.2-3.2-41.2-7.7-9-2.5-17.9-1.8-26.9 2-7 2.6-13.6 8.5-19.7 17.8s-11.5 19.6-16.3 30.8c-4.8 11.2-8.5 22.8-11.1 34.7-2.6 11.9-3.2 21.6-1.9 29.3 2 14.1 8.4 23.1 19.3 27 19.2 7.7 36.5 20.3 51.8 38 15.4 17.6 23.1 37.4 23.1 59.2 0 22.5-7.7 42-23.1 58.7-15.4 16.6-32.6 28.8-51.8 36.5-5.8 1.9-10.6 6.6-14.4 14-3.8 7.4-5.8 15-5.8 22.6 0 8.3 1.3 17.6 3.9 27.9 2.6 10.3 5.9 20.2 10.1 29.9 4.1 9.6 8.9 18.4 14.4 26.5 5.4 8 11.3 13.9 17.8 17.8 5.1 3.2 10.1 4.5 14.9 3.8 4.7-0.6 10.1-1.9 15.9-3.8 19.2-7.7 39.2-10.1 60-7.2 20.8 2.9 39.2 12 55.2 27.4 7.7 7.7 13.3 17.1 16.8 28.4 3.5 11.2 5.8 22.3 6.7 33.2 0.9 10.9 0.9 20.8 0 29.8-1 9-1.7 15.4-2.4 19.3-1.3 3.9-2.4 8.3-3.4 13.5-0.9 5.1-0.4 9.6 1.5 13.4 3.8 9 10.7 16.8 20.6 23.6 9.9 6.7 20.6 12.3 32.2 16.8 11.6 4.5 22.7 7.9 33.6 10.1 10.8 2.2 19.5 3.4 25.9 3.4 8.3 0 14.9-2.7 19.7-8.2 4.8-5.5 8.2-11.1 10.1-16.9 7-17.3 18.6-32.6 34.6-45.7 16-13.1 34.9-19.7 56.6-19.7 22.4 0 42.2 6.3 59.5 18.8 17.3 12.5 29.4 28.4 36.4 47.7 2.6 5.1 6.6 10.4 12.1 15.9 5.4 5.4 11 8.2 16.7 8.2 8.9 0 18.8-1.3 29.3-3.8 10.5-2.6 20.9-6.1 31.2-10.6 10.2-4.5 19.7-10.2 28.3-17.3 8.6-7.1 15.5-14.8 20.6-23.1 3.2-5.1 4.2-10.7 2.9-16.8-1.2-6.1-2.6-10.5-3.9-13-8.3-18.6-10.8-38.2-7.6-58.7 3.2-20.6 12.5-38.5 27.8-53.9 15.4-15.4 34.2-23.9 56.6-25.5 22.4-1.6 43.2 2.1 62.4 11.1 5.1 3.2 11.3 4.5 18.7 3.8 7.4-0.6 13.6-3.5 18.7-8.6 9.6-9 18-22.6 25.4-40.9 7.4-18.3 12.3-36.7 14.9-55.3 1.2-10.9-0.5-19.4-5.3-25.5-4.8-6.1-9.8-10.1-14.9-12-19.8-7.1-36.8-19.4-50.9-37-14.4-18.2-21.5-38.2-21.5-60.7 0-21.9 5.9-40.9 17.7-57.3 11.8-16.4 27.4-28.1 46.6-35.1 4.5-2.6 8.3-5.2 11.5-7.7 7.1-5.8 11.9-13.2 14.4-22.2z m-446.2-86.6c28.8 0 56 5.5 81.6 16.4 25.6 10.9 47.8 26 66.7 45.3 18.9 19.3 33.7 41.5 44.6 66.8 10.8 25.4 16.3 52.5 16.3 81.4 0 28.9-5.5 56-16.3 81.3-10.9 25.4-25.8 47.5-44.6 66.4-18.9 18.9-41.1 33.8-66.7 44.7-25.6 10.9-52.8 16.4-81.6 16.4-28.8 0-55.9-5.4-81.1-16.4-25.3-10.9-47.4-25.8-66.2-44.8-18.9-18.9-33.8-41.1-44.7-66.4-10.8-25.3-16.3-52.4-16.3-81.3s5.5-56 16.3-81.4c10.9-25.3 25.8-47.6 44.6-66.8 18.9-19.3 40.9-34.3 66.2-45.3 25.3-10.8 52.3-16.3 81.2-16.3z"  horiz-adv-x="1024" />

    
    <glyph glyph-name="weixin" unicode="&#59114;" d="M447.392 896c218.336 0 412.096-135.904 450.784-316.128a19.04 19.04 0 0 0 0.064-6.464l9.792-0.896C1096.256 553.504 1248 411.296 1248 244.864a335.488 335.488 0 0 0-146.784-253.792l28.288-94.08a19.52 19.52 0 0 0-28-22.624l-110.72 60.544a526.4 526.4 0 0 0-125.696-20.224l-9.984-0.32a377.504 377.504 0 0 0-350.592 218.784l-5.088-1.12c-3.392-0.64-6.848-1.152-10.272-1.472l-13.888-0.96c-9.28-0.544-18.56-0.832-27.776-0.832a607.488 607.488 0 0 0-129.472 16.96l-17.728 3.552-143.584-71.84a19.808 19.808 0 0 0-8.8-2.112l-3.136 0.256-3.04 0.736a19.52 19.52 0 0 0-12.32 24.672l38.304 115.072A365.92 365.92 0 0 0 0 512.384l0.128 9.056C5.76 728.8 204.384 896 447.36 896z m417.696-375.424c-180.352 0-327.04-123.84-327.04-276.224S684.768-32 865.12-32a489.984 489.984 0 0 1 117.248 19.776l2.24 0.448 2.304 0.16 3.072-0.256c2.016-0.352 4-1.056 5.792-2.048l71.808-39.328-17.472 58.272a18.528 18.528 0 0 0 6.592 20.096l8.128 5.248a289.408 289.408 0 0 1 126.72 213.984l-0.16 7.744c-5.024 146.336-152.384 268.48-326.272 268.48zM447.584 839.2C233.376 839.2 59.2 692.16 59.2 511.52a313.408 313.408 0 0 1 154.848-259.392l2.336-1.92a18.56 18.56 0 0 0 4.608-19.136l-26.56-79.904 102.368 51.264a17.856 17.856 0 0 0 11.84 1.568l23.296-4.672c37.888-9.216 76.64-14.4 115.616-15.36l12.16 0.16a425.6 425.6 0 0 1 24.256 1.408v-0.096l5.952 0.544a467.776 467.776 0 0 0-10.016 71.2l0.128 8.416c5.12 167.552 163.744 302.592 359.04 305.12-34.624 153.28-202.24 268.48-391.488 268.48z m315.072-462.528c30.24 0 54.72-19.616 54.72-43.84v-0.032l-0.192-4c-2.528-22.368-25.952-39.872-54.528-39.872-30.208 0-54.72 19.616-54.72 43.84 0 24.288 24.512 43.904 54.72 43.904z m233.568 0c30.208 0 54.72-19.648 54.72-43.872s-24.512-43.872-54.72-43.872c-30.24 0-54.72 19.648-54.72 43.872s24.48 43.872 54.72 43.872zM310.176 691.2c34.24 0 62.048-24.576 62.048-54.848l-0.224-4.48c-2.56-28.224-29.28-50.4-61.824-50.4-34.24 0-62.048 24.576-62.048 54.88l0.224 4.48c2.56 28.192 29.28 50.368 61.824 50.368z m291.936 0c34.24 0 62.016-24.576 62.016-54.848l-0.192-4.48c-2.56-28.224-29.28-50.4-61.824-50.4-34.24 0-62.048 24.576-62.048 54.88l0.224 4.48c2.56 28.192 29.28 50.368 61.824 50.368z"  horiz-adv-x="1248" />

    
    <glyph glyph-name="shangpinguanli" unicode="&#58960;" d="M875.3 497.8L602.2 732.5c-18.1 15.5-40.1 25.5-63.5 29.6-17 3.3-34.8 3.3-52 0.3-23.8-4.1-46.5-14.1-64.9-29.9L148.7 497.8c-23.9-20.5-37.3-48.4-37.3-77.4V-62c0-36.5 34.4-65.9 76.8-65.9H836c42.3 0 76.8 29.4 76.8 65.9V420.3c-0.1 29.1-13.6 57-37.5 77.5zM537.5 625.5c35.1-10.8 60.6-43.5 60.6-82.3 0-47.5-38.6-86.1-86.1-86.1s-86.1 38.6-86.1 86.1c0 38.7 25.5 71.4 60.6 82.3h51zM716.4-4.2H307.7c-13.3 0-24.2 10.8-24.2 24.2 0 13.3 10.8 24.2 24.2 24.2h408.7c13.3 0 24.2-10.8 24.2-24.2-0.1-13.4-10.9-24.2-24.2-24.2zM486.5 625.5c-0.3 1-0.3 2.2-0.3 3.4V749.7c0 4.3 0.2 8.4 0.5 12.7C493.2 837.1 556.1 896 632.5 896c38.6 0 76.2-15.7 103.4-43 27.2-27 42.9-64.7 42.9-103.3v-68.8c0-14.3-11.5-25.8-25.8-25.8s-25.8 11.5-25.8 25.8v68.8c0 24.8-10.2 49.2-27.9 66.8-17.6 17.7-42 27.9-66.8 27.9-48 0-87.8-36-93.8-82.3-0.5-4-0.9-8.1-0.9-12.4v-120.8c0-1.2 0-2.4-0.3-3.4h-51z"  horiz-adv-x="1024" />

    
    <glyph glyph-name="xinzeng" unicode="&#58882;" d="M410.79999969 108c0 57.40000031 15.64000031 111 43.04000062 156.91999969a24 24 0 0 0-2.68000031-0.07999969H223.11999969a28.48000031 28.48000031 0 0 0 0 56.95999969h228.04000031a28.39999969 28.39999969 0 0 0 27.52000031-21 306.84 306.84 0 0 0 286.8 111.08000062l-0.68000062 44.83999969V778.0399996900001a85.60000031 85.60000031 0 0 1-85.56 85.60000031H137.6A85.60000031 85.60000031 0 0 1 51.99999969 778.00000031V150.79999969000005a85.60000031 85.60000031 0 0 1 85.56-85.56h276.16000031a306.72 306.72 0 0 0-2.95999969 42.80000062zM223.08000031 663.96h370.68a28.48000031 28.48000031 0 0 0 0-56.95999969H223.11999969a28.39999969 28.39999969 0 1 0 0 56.95999969z m0-171.12h285.12a28.48000031 28.48000031 0 0 0 0-56.95999969H223.11999969a28.48000031 28.48000031 0 0 0 0 56.95999969zM722.346667 351.914667a239.744 239.744 0 1 1 0.085333-479.445334 239.744 239.744 0 0 1-0.085333 479.445334z m155.093333-239.701334a41.685333 41.685333 0 0 0-41.514667-41.514666h-72.021333v-52.565334a41.685333 41.685333 0 0 0-41.557333-41.514666 41.685333 41.685333 0 0 0-41.514667 41.514666v52.565334H608.853333a41.685333 41.685333 0 0 0-41.514666 41.514666c0 22.826667 18.688 41.557333 41.514666 41.557334h72.021334v52.565333c0 22.784 18.730667 41.514667 41.514666 41.514667 22.826667 0 41.557333-18.730667 41.557334-41.514667v-52.565333h72.021333c22.784 0 41.514667-18.730667 41.514667-41.557334z"  horiz-adv-x="1024" />

    
    <glyph glyph-name="zhichuguanli" unicode="&#58888;" d="M763.904 733.696H259.584A107.52 107.52 0 0 1 153.6 626.176v-483.84a107.52 107.52 0 0 1 107.52-107.52h504.32a107.52 107.52 0 0 1 107.52 107.52V626.176a107.52 107.52 0 0 1-107.52 107.52zM819.2 142.336a51.2 51.2 0 0 0-53.76-51.2H260.096a51.2 51.2 0 0 0-51.2 51.2V518.656H819.2v-376.32zM819.2 623.616v-23.04H204.8v25.6a54.272 54.272 0 0 0 53.76 51.2h504.32a51.2 51.2 0 0 0 53.76-51.2M404.992 249.856a27.136 27.136 0 0 1 0-53.76h80.896v-53.76a26.624 26.624 0 0 1 26.624-26.624 26.624 26.624 0 0 1 27.136 26.624v53.76h80.384a26.624 26.624 0 0 1 27.136 26.624 27.136 27.136 0 0 1-27.136 27.136h-80.384v51.2h80.384a26.624 26.624 0 0 1 27.136 26.624 27.136 27.136 0 0 1-27.136 27.136H552.96l86.016 86.016a28.16 28.16 0 0 1 0 38.912 28.672 28.672 0 0 1-38.912 0L512 397.824 426.496 483.84a28.672 28.672 0 0 1-38.912 0 28.16 28.16 0 0 1 0-38.912l85.504-86.528H404.992a26.624 26.624 0 0 1-26.624-27.136 26.624 26.624 0 0 1 26.624-26.624h80.896v-51.2z m0 0"  horiz-adv-x="1024" />

    
    <glyph glyph-name="gonggao" unicode="&#58886;" d="M668.35 777.119a73.35 73.35 0 0 1-71.169 4.06l-310.01-148.68a4.608 4.608 0 0 0-2.013-0.46h-155.11a73.728 73.728 0 0 1-73.728-73.636v-349.64a73.728 73.728 0 0 1 73.728-73.636h156.554a4.68 4.68 0 0 0 1.94-0.43l309.592-143.196a73.702 73.702 0 0 1 104.668 66.82V714.794a73.216 73.216 0 0 1-34.453 62.326zM125.403 208.763v349.64a4.608 4.608 0 0 0 4.608 4.608h122.035v-358.882H130.048a4.608 4.608 0 0 0-4.644 4.634z m508.319-150.441a4.608 4.608 0 0 0-6.564-4.193L321.132 195.68V572.227l305.97 146.723a4.608 4.608 0 0 0 6.62-4.157v-656.471zM938.26 417.28H788.01a34.509 34.509 0 1 1 0-69.018H938.26a34.509 34.509 0 1 1 0 69.018zM810.01 535.04a34.447 34.447 0 0 1 24.417 10.102l106.245 106.122a34.524 34.524 0 0 1-48.84 48.809L785.587 593.92a34.509 34.509 0 0 1 24.423-58.88z m24.417-314.609a34.524 34.524 0 1 1-48.84-48.814L891.832 65.48a34.524 34.524 0 0 1 48.84 48.809z"  horiz-adv-x="1024" />

    
    <glyph glyph-name="kehuduan" unicode="&#58883;" d="M956 825.9H68C34.4 825.9 7 799 7 766v-602.2c0-33 27.4-59.9 61-59.9h304.3v-43.6c0-39.9-33.1-72.4-73.8-72.4h-67.1c-12.9 0-23.3-10.2-23.3-22.9 0-12.6 10.4-22.9 23.3-22.9h561.1c12.9 0 23.3 10.2 23.3 22.9 0 12.6-10.4 22.9-23.3 22.9h-67.1c-40.7 0-73.8 32.5-73.8 72.4v43.6H956c33.6 0 61 26.9 61 59.9V766c0 33-27.3 59.9-61 59.9z m-562.5-838c15.9 20 25.4 45.2 25.4 72.4v43.6h186.3v-43.6c0-27.3 9.5-52.4 25.4-72.4H393.5z m576.9 175.9c0-7.8-6.5-14.2-14.4-14.2H68c-7.9 0-14.4 6.3-14.4 14.2V284h916.9v-120.2z m0 165.9H53.6V766c0 7.8 6.5 14.2 14.4 14.2h888c7.9 0 14.4-6.3 14.4-14.1v-436.4z m0 0M486.9 216.79999999999995c0-8.8 4.8-17 12.6-21.4 7.8-4.4 17.4-4.4 25.1 0 7.8 4.4 12.6 12.6 12.6 21.4 0 13.6-11.3 24.7-25.1 24.7-14 0-25.2-11.1-25.2-24.7z m65 451.5c-9.1 8.9-23.8 8.9-32.9 0L354.4 506.7c-9.1-8.9-9.1-23.4 0-32.3 4.4-4.3 10.3-6.7 16.5-6.7 6.2 0 12.1 2.4 16.5 6.7L551.9 636c9.1 8.9 9.1 23.4 0 32.3z m97.6-93.6c-9.1 8.9-23.8 8.9-32.9 0L551 510.3c-9.1-8.9-9.1-23.4 0-32.3 4.4-4.3 10.3-6.7 16.5-6.7 6 0 11.9 2.2 16.5 6.7l65.6 64.4c8.9 8.9 8.9 23.3-0.1 32.3z m0 0"  horiz-adv-x="1024" />

    
    <glyph glyph-name="shangpinfenxi1" unicode="&#58884;" d="M922.84787947 711.5157973299999H740.03939947A223.6298016 223.6298016 0 0 1 512.31466667 930.09386667a223.6298016 223.6298016 0 0 1-227.65753387-218.57806934h-182.9439456a89.01544107 89.01544107 0 0 1-90.31250773-86.8991744v-699.83126186a88.5375744 88.5375744 0 0 1 90.37970773-86.8991744H922.1652128a88.5375744 88.5375744 0 0 1 90.3807744 86.8991744V624.61662293a87.9231744 87.9231744 0 0 1-89.69810773 86.8991744zM512.31466667 842.58029227a133.8634272 133.8634272 0 0 0 136.5940928-131.06449494H375.7205728A133.8634272 133.8634272 0 0 0 512.31466667 842.58029227z m295.64684693-552.79343787L634.23249707 117.42317119999996a32.9023904 32.9023904 0 0 0-4.2325312-6.2805312 40.07038827 40.07038827 0 0 0-30.78719147-11.94666347 42.59625387 42.59625387 0 0 0-31.53705707 11.94666347 29.35359147 29.35359147 0 0 0-5.5978656 8.39679787l-137.34395946 138.02662613-147.10715734-145.74075733a43.62025387 43.62025387 0 0 0-60.2773152 0 41.4357216 41.4357216 0 0 0 0 59.5253152L382.75203733 334.5676416a40.0021216 40.0021216 0 0 0 9.1477312 14.74452907 42.05012053 42.05012053 0 0 0 32.9023904 11.87839573 42.05012053 42.05012053 0 0 0 32.97065707-11.87839573 52.1525184 52.1525184 0 0 0 9.76213013-15.42719574l131.7471616-131.7471616L747.75459733 349.31217067a43.62025387 43.62025387 0 0 0 60.2762496 0 42.7327872 42.7327872 0 0 0 0-59.52531627z"  horiz-adv-x="1024" />

    
    <glyph glyph-name="fuwupingjia-kefu" unicode="&#58885;" d="M919.438 326.65599999999995v29.013c2.276 132.551-36.636 244.054-113.322 323.13-36.637 37.773-80.783 66.218-131.983 86.015C665.941 836.267 589.255 892.7 495.73 892.7c-93.526 0-170.894-56.32-178.404-127.886-51.2-19.797-95.346-48.242-131.982-86.016-76.686-79.075-115.712-190.009-113.323-322.56v-35.498c-19.797-20.367-35.498-50.518-23.78-93.526 8.762-31.971 31.972-55.182 60.417-65.65 14.563-9.33 31.402-14.563 49.948-14.563 36.637-160.427 168.505-269.653 341.22-269.653 172.6 0 304.583 109.226 341.22 270.222 1.137 0 2.275-0.57 3.526-0.57 22.642 0 43.577 8.193 60.416 21.505 21.504 12.174 38.344 33.11 45.284 59.278 12.174 46.649-8.192 78.62-30.834 98.873zM818.29 238.933c0-21.504-1.707-41.87-4.665-61.553-56.32-90.681-149.39-149.96-264.989-162.703-8.76 11.606-26.168 19.229-46.535 19.229-29.013 0-52.337-15.702-52.337-35.499 0-19.228 23.21-35.499 52.337-35.499 26.17 0 47.104 12.744 51.77 29.696 37.205 4.096 72.703 13.312 106.381 26.738 47.673 19.229 89.544 47.673 124.928 83.74 5.803 5.803 11.037 11.606 16.27 17.978-41.87-128.57-154.054-211.058-299.918-211.058h-1.137c-187.734 0-318.464 135.395-318.464 328.931l-0.57 18.546c0 8.192 1.139 30.265 2.276 51.2 77.938 28.445 148.253 137.216 176.697 187.165 26.17-35.5 86.016-103.993 177.835-139.492 34.247-13.312 69.177-20.366 103.424-27.876 68.039-14.563 132.551-28.444 176.128-85.447l1.707-1.706-1.138-2.39z m0 0"  horiz-adv-x="1024" />

    
    <glyph glyph-name="xiaochengxu" unicode="&#58913;" d="M511.232 831.744a446.72 446.72 0 1 1 0-893.44 446.72 446.72 0 0 1 0 893.44z m264.192-408.768c-21.376-33.28-54.016-57.6-91.968-68.544-1.472 0-1.472 0-2.944-1.536-5.76-1.408-11.648-2.88-18.944-2.88-27.712 0-42.304 19.008-35.008 40.832 5.824 16.064 21.824 30.72 40.832 36.48 30.72 11.712 51.136 36.544 51.136 65.728 0 39.424-38.016 71.552-84.672 71.552-46.72 0-84.672-32.128-84.672-71.552v-217.472c0-52.544-30.656-97.792-75.904-124.096a166.592 166.592 0 0 0-84.672-21.888c-88.96 0-160.64 65.664-160.64 145.92 0 26.304 7.36 49.664 20.48 71.552 21.376 33.28 54.016 57.6 91.968 68.672 7.36 1.408 13.12 2.88 20.48 2.88 27.712 0 42.24-18.944 35.008-40.896-5.824-16-20.48-29.184-37.952-36.48a11.072 11.072 0 0 1-5.824-2.88c-27.776-11.712-46.72-35.072-46.72-64.256 0-39.424 37.952-71.552 84.672-71.552s84.608 32.128 84.608 71.552V491.52c0 52.608 30.72 97.856 75.968 124.096a165.952 165.952 0 0 0 84.608 21.888c89.088 0 160.64-65.664 160.64-145.92-0.256-24.32-7.36-48.128-20.48-68.672z"  horiz-adv-x="1024" />

    
    <glyph glyph-name="shangcheng4" unicode="&#59040;" d="M955.392 724.878c0 83.968-66.105 151.894-147.684 151.894h-591.36c-81.635 0-147.91-67.926-147.91-151.894L19.284 43.122c0-83.968 66.105-151.894 147.798-151.894H857.03c81.579 0 147.854 67.926 147.854 151.894-10.809 148.138-18.83 259.129-24.12 333.312l-25.316 348.444z m-135.396-33.621c0-65.593-28.842-127.317-81.18-173.739-52.338-46.421-121.97-71.907-196.04-71.907-73.955 0-143.644 25.486-195.981 71.907-52.338 46.422-81.18 108.146-81.18 173.739v0.626l68.095-0.114v-0.74c0.114-102.115 93.81-185.06 209.067-185.06 115.314 0 208.896 83.059 209.01 185.06v0.626l68.266 0.228v-0.626z"  horiz-adv-x="1024" />

    
    <glyph glyph-name="duosefuzhu-gengduotiaojian1" unicode="&#58887;" d="M128 319.87199999999996h256a64 64 0 0 0 64-64v-256a64 64 0 0 0-64-64H128a64 64 0 0 0-64 64v256a64 64 0 0 0 64 64z m0-64v-256h256v256H128z m512 64h256a64 64 0 0 0 64-64v-256a64 64 0 0 0-64-64H640a64 64 0 0 0-64 64v256a64 64 0 0 0 64 64z m0-64v-256h256v256H640z m-512 576h256a64 64 0 0 0 64-64v-256a64 64 0 0 0-64-64H128a64 64 0 0 0-64 64v256a64 64 0 0 0 64 64z m0-64v-256h256v256H128zM896 832a64 64 0 0 0 64-64v-256a64 64 0 0 0-64-64H640a64 64 0 0 0-64 64V768a64 64 0 0 0 64 64h256z m0-64H640v-256h256V768z"  horiz-adv-x="1024" />

    
    <glyph glyph-name="xiaoshouchaxun" unicode="&#59017;" d="M885.191111-105.244444H138.808889C75.093333-105.244444 22.755556-52.906667 22.755556 10.808889V757.191111C22.755556 820.906667 75.093333 873.244444 138.808889 873.244444h746.382222C948.906667 873.244444 1001.244444 820.906667 1001.244444 757.191111v-746.382222C1001.244444-52.906667 948.906667-105.244444 885.191111-105.244444zM628.053333 146.204444V190.577778h-53.475555c-11.377778 0-17.066667 5.688889-17.066667 15.928889 1.137778 9.102222 6.826667 13.653333 17.066667 15.928889h53.475555V247.466667h-53.475555c-11.377778 0-17.066667 5.688889-17.066667 15.928889 1.137778 9.102222 6.826667 13.653333 17.066667 15.928888h30.72l-45.511111 64.853334c-4.551111 3.413333-6.826667 9.102222-5.688889 15.928889 1.137778 15.928889 10.24 25.031111 27.306666 27.306666 9.102222-1.137778 15.928889-4.551111 21.617778-11.377777l53.475556-76.231112 53.475555 76.231112c4.551111 6.826667 12.515556 10.24 21.617778 11.377777 15.928889-2.275556 25.031111-11.377778 27.306667-27.306666 0-6.826667-2.275556-12.515556-5.688889-15.928889l-45.511111-64.853334h30.72c9.102222-2.275556 14.791111-6.826667 17.066666-15.928888-1.137778-10.24-6.826667-15.928889-17.066666-15.928889H682.666667v-23.893334h53.475555c9.102222-2.275556 14.791111-6.826667 17.066667-15.928889-1.137778-10.24-6.826667-15.928889-17.066667-15.928888H682.666667v-44.373334c-1.137778-15.928889-10.24-23.893333-27.306667-23.893333-18.204444-1.137778-27.306667 6.826667-27.306667 22.755555z m0 0M197.973333 17.635556c-14.791111 0-26.168889 11.377778-26.168889 26.168888V724.195556c0 14.791111 11.377778 26.168889 26.168889 26.168888h629.191111c14.791111 0 26.168889-11.377778 26.168889-26.168888V42.666667c0-14.791111-11.377778-26.168889-26.168889-26.168889h-261.688888c-5.688889 0-11.377778 2.275556-15.928889 5.688889l-86.471111 64.853333-62.577778-62.577778c-9.102222-9.102222-25.031111-10.24-35.271111-1.137778L287.857778 88.177778 216.177778 24.462222c-5.688889-4.551111-12.515556-7.964444-18.204445-6.826666z m375.466667 52.337777h227.555556V698.026667H224.142222v-597.333334l44.373334 39.822223c9.102222 9.102222 23.893333 9.102222 34.133333 1.137777l76.231111-63.715555 61.44 61.44c9.102222 9.102222 23.893333 10.24 34.133333 2.275555l98.986667-71.68z m0 0M708.835556 593.351111H315.164444c-14.791111 0-26.168889 11.377778-26.168888 26.168889 0 14.791111 11.377778 26.168889 26.168888 26.168889h393.671112c14.791111 0 26.168889-11.377778 26.168888-26.168889 0-13.653333-12.515556-26.168889-26.168888-26.168889z m-118.328889-104.675555H315.164444c-14.791111 0-26.168889 11.377778-26.168888 26.168888 0 14.791111 11.377778 26.168889 26.168888 26.168889h275.342223c14.791111 0 26.168889-11.377778 26.168889-26.168889 0-13.653333-11.377778-26.168889-26.168889-26.168888zM485.831111 384h-170.666667c-14.791111 0-26.168889 11.377778-26.168888 26.168889 0 14.791111 11.377778 26.168889 26.168888 26.168889h170.666667c14.791111 0 26.168889-11.377778 26.168889-26.168889 0-14.791111-11.377778-26.168889-26.168889-26.168889z m0 0"  horiz-adv-x="1024" />

    
    <glyph glyph-name="huiyuanguanli" unicode="&#59003;" d="M758.272 844.8a102.4 102.4 0 0 0 91.6992-56.832l141.5168-284.7232a102.4 102.4 0 0 0-18.7904-117.4528l-384.256-389.6832a102.4 102.4 0 0 0-138.24-6.9632l-6.6048 5.9904-390.5536 385.28A102.4 102.4 0 0 0 33.4336 499.2l145.2032 289.1264A102.4 102.4 0 0 0 270.1312 844.8h488.1408z m0-61.44H270.1312a40.96 40.96 0 0 1-33.6896-17.6128l-2.9184-4.9664-145.2032-289.0752a40.96 40.96 0 0 1 3.9936-43.1616l3.84-4.4032 388.7616-383.5392 4.5056-4.1984a40.96 40.96 0 0 1 50.5344-1.28l4.7104 4.096 384.256 389.6832a40.96 40.96 0 0 1 9.728 41.6768l-2.2016 5.3248-141.4656 284.7232a40.96 40.96 0 0 1-30.9248 22.3232L758.272 783.36zM333.9264 457.1136l188.2624-188.2112 188.2624 188.2112a30.72 30.72 0 1 0 43.4688-43.4176l-210.0224-210.0224a30.5664 30.5664 0 0 0-13.9264-7.9872l-5.12-0.8704h-5.2736a30.6176 30.6176 0 0 0-19.0976 8.8576L290.5088 413.696a30.72 30.72 0 1 0 43.4176 43.4176z"  horiz-adv-x="1024" />

    
    <glyph glyph-name="xiaoshoufenxi" unicode="&#58949;" d="M587.84 763.2h75.84a16 16 0 0 0 19.04-18.88V61.6a16 16 0 0 0-19.04-18.88h-75.84a16 16 0 0 0-18.88 18.88V744.32a16 16 0 0 0 18.88 18.88zM170.72 251.2v-189.6h75.84V251.2z m0 37.92h75.84a37.92 37.92 0 0 0 37.92-37.92v-189.6a37.92 37.92 0 0 0-37.92-37.92h-75.84a37.92 37.92 0 0 0-37.92 37.92V251.2a37.92 37.92 0 0 0 37.92 37.92z m208 189.76V61.6h75.84V478.88z m0 37.92h75.84a37.92 37.92 0 0 0 37.92-37.92V61.6a37.92 37.92 0 0 0-37.92-37.92H379.2a37.92 37.92 0 0 0-37.92 37.92V478.88a37.92 37.92 0 0 0 37.92 37.92z m208 227.52V61.6h75.84V744.32z m0 37.92h75.84a37.92 37.92 0 0 0 37.92-37.92V61.6a37.92 37.92 0 0 0-37.92-37.92h-74.72a37.92 37.92 0 0 0-37.92 37.92V744.32a37.92 37.92 0 0 0 37.92 37.92z m208-720h-36.16V421.92a37.92 37.92 0 0 0 37.92 37.92h75.84a37.92 37.92 0 0 0 37.92-37.92V61.6h-37.92V421.92h-75.84zM86.88 23.52a19.04 19.04 0 0 0 0 37.92H955.2a19.04 19.04 0 0 0 0-37.92H86.88z"  horiz-adv-x="1024" />

    


  </font>
</defs>
</svg>
